<svg width="150" height="50" viewBox="0 0 429 157" fill="none" xmlns="http://www.w3.org/2000/svg">
<g filter="url(#filter0_d)">
<path d="M28.98 53H5.7V11.96H9.36V49.58H28.98V53ZM35.5158 22.7C36.2758 23.26 36.8758 23.9 37.3158 24.62C37.7958 25.3 38.1758 26.04 38.4558 26.84C38.7358 27.64 38.9158 28.46 38.9958 29.3C39.1158 30.14 39.1758 30.98 39.1758 31.82V53H35.8758V31.82C35.8758 30.22 35.6758 28.84 35.2758 27.68C34.8758 26.52 34.2758 25.52 33.4758 24.68L35.5158 22.7ZM34.2558 13.28C34.2558 12.48 34.5158 11.82 35.0358 11.3C35.5958 10.74 36.2558 10.46 37.0158 10.46C37.8158 10.46 38.4758 10.74 38.9958 11.3C39.5558 11.82 39.8358 12.48 39.8358 13.28C39.8358 14.04 39.5558 14.7 38.9958 15.26C38.4758 15.78 37.8158 16.04 37.0158 16.04C36.2558 16.04 35.5958 15.78 35.0358 15.26C34.5158 14.7 34.2558 14.04 34.2558 13.28ZM70.6955 53C70.0555 51.8 69.6355 50.46 69.4355 48.98C69.2355 47.46 69.1355 46.12 69.1355 44.96C69.1355 44 69.1555 43.1 69.1955 42.26C69.2355 41.42 69.2755 40.54 69.3155 39.62C69.3955 38.66 69.4555 37.64 69.4955 36.56C69.5755 35.48 69.6155 34.24 69.6155 32.84C69.6155 30.36 69.0555 28.54 67.9355 27.38C66.8155 26.22 65.1155 25.64 62.8355 25.64C60.6755 25.64 58.8555 26.18 57.3755 27.26C55.8955 28.3 54.4555 29.78 53.0555 31.7V31.82V53H49.7555V31.82C49.7555 30.22 49.5555 28.84 49.1555 27.68C48.7555 26.52 48.1555 25.52 47.3555 24.68L49.3955 22.7C50.3555 23.38 51.0955 24.22 51.6155 25.22C52.1355 26.18 52.4955 27.18 52.6955 28.22C54.0155 26.3 55.5155 24.88 57.1955 23.96C58.9155 23 60.7955 22.52 62.8355 22.52C66.3555 22.52 68.9155 23.36 70.5155 25.04C72.1155 26.72 72.9155 29.1 72.9155 32.18C72.9155 33.62 72.8755 34.94 72.7955 36.14C72.7555 37.3 72.6955 38.4 72.6155 39.44C72.5755 40.48 72.5355 41.48 72.4955 42.44C72.4555 43.4 72.4355 44.36 72.4355 45.32C72.4355 46.64 72.5355 47.9 72.7355 49.1C72.9355 50.3 73.3155 51.6 73.8755 53H70.6955ZM102.668 53L99.428 45.8C98.788 44.4 98.008 43.28 97.088 42.44C96.168 41.56 94.868 41.08 93.188 41H93.128H92.648H85.568V53H82.268V9.44H85.568V28.46C86.488 26.66 87.708 25.22 89.228 24.14C90.788 23.06 92.708 22.52 94.988 22.52C96.468 22.52 97.828 22.74 99.068 23.18C100.348 23.58 101.448 24.18 102.368 24.98C103.288 25.74 104.008 26.7 104.528 27.86C105.048 28.98 105.308 30.24 105.308 31.64C105.308 34.04 104.708 35.92 103.508 37.28C102.308 38.6 100.768 39.56 98.888 40.16C99.688 40.68 100.368 41.3 100.928 42.02C101.488 42.7 101.968 43.44 102.368 44.24L106.388 53H102.668ZM94.988 25.46C93.548 25.46 92.248 25.82 91.088 26.54C89.928 27.26 88.948 28.2 88.148 29.36C87.348 30.52 86.728 31.84 86.288 33.32C85.888 34.8 85.688 36.32 85.688 37.88H92.648C94.688 37.88 96.308 37.7 97.508 37.34C98.748 36.94 99.688 36.44 100.328 35.84C100.968 35.24 101.388 34.58 101.588 33.86C101.788 33.1 101.888 32.36 101.888 31.64C101.888 29.76 101.288 28.26 100.088 27.14C98.888 26.02 97.188 25.46 94.988 25.46Z" fill="#540767"/>
</g>
<path d="M123 127.8C122.133 128 121.233 128.133 120.3 128.2C119.367 128.333 118.533 128.4 117.8 128.4C115.667 128.4 113.8 128 112.2 127.2C110.6 126.467 109.2 125.467 108 124.2C106.867 122.933 105.9 121.5 105.1 119.9C104.367 118.3 103.8 116.633 103.4 114.9L89 59L94.9 57.5L109.3 113.4C110.033 116.4 111.1 118.733 112.5 120.4C113.9 122 115.967 122.9 118.7 123.1L131.3 94.9V70H137.4V94.9L146 115.2C147.133 117.933 148.4 119.9 149.8 121.1C151.267 122.233 153.033 122.9 155.1 123.1L173 57.4L178.7 59.1L160.1 127.8C159.233 128 158.333 128.133 157.4 128.2C156.467 128.333 155.633 128.4 154.9 128.4C152.9 128.4 151.1 128.067 149.5 127.4C147.967 126.8 146.6 126 145.4 125C144.2 123.933 143.167 122.7 142.3 121.3C141.433 119.833 140.7 118.3 140.1 116.7L134.4 102.3L123 127.8ZM210.603 128C206.87 128 203.47 127.367 200.403 126.1C197.336 124.833 194.703 123.067 192.503 120.8C190.37 118.467 188.703 115.733 187.503 112.6C186.303 109.467 185.703 106.033 185.703 102.3C185.703 98.5667 186.303 95.1333 187.503 92C188.703 88.8 190.37 86.0333 192.503 83.7C194.703 81.3667 197.336 79.5333 200.403 78.2C203.47 76.8667 206.87 76.2 210.603 76.2C214.336 76.2 217.703 76.8667 220.703 78.2C223.77 79.4667 226.37 81.2667 228.503 83.6C230.703 85.8667 232.403 88.6 233.603 91.8C234.803 94.9333 235.403 98.3333 235.403 102C235.403 105.733 234.803 109.2 233.603 112.4C232.403 115.6 230.703 118.367 228.503 120.7C226.37 122.967 223.77 124.767 220.703 126.1C217.703 127.367 214.336 128 210.603 128ZM210.603 81.4C207.67 81.4 205.036 81.9 202.703 82.9C200.37 83.9 198.336 85.3 196.603 87.1C194.936 88.9 193.636 91.0667 192.703 93.6C191.836 96.1333 191.403 98.9333 191.403 102C191.403 105.133 191.836 108 192.703 110.6C193.636 113.133 194.936 115.3 196.603 117.1C198.336 118.9 200.37 120.3 202.703 121.3C205.036 122.3 207.67 122.8 210.603 122.8C213.47 122.8 216.07 122.3 218.403 121.3C220.803 120.233 222.836 118.8 224.503 117C226.17 115.133 227.436 112.933 228.303 110.4C229.236 107.8 229.703 104.933 229.703 101.8C229.703 98.7333 229.236 95.9667 228.303 93.5C227.436 90.9667 226.17 88.8 224.503 87C222.836 85.2 220.803 83.8333 218.403 82.9C216.07 81.9 213.47 81.4 210.603 81.4ZM279.371 127V93.4C279.371 89.2 278.471 86.1667 276.671 84.3C274.938 82.3667 272.438 81.4 269.171 81.4C267.838 81.4 266.471 81.6333 265.071 82.1C263.671 82.5 262.304 83.1333 260.971 84C259.704 84.8667 258.538 85.9 257.471 87.1C256.404 88.3 255.538 89.6667 254.871 91.2V91.7V127H249.371V91.7C249.371 89.0333 249.038 86.7333 248.371 84.8C247.704 82.8667 246.704 81.2 245.371 79.8L248.771 76.5C250.304 77.6333 251.471 78.9667 252.271 80.5C253.138 81.9667 253.771 83.5667 254.171 85.3C255.971 82.2333 258.204 79.9667 260.871 78.5C263.604 76.9667 266.571 76.2 269.771 76.2C273.038 76.2 275.904 76.9667 278.371 78.5C280.838 80.0333 282.638 82.3667 283.771 85.5C285.704 82.3 288.071 79.9667 290.871 78.5C293.671 76.9667 296.438 76.2 299.171 76.2C303.971 76.2 307.804 77.6 310.671 80.4C313.604 83.2 315.071 87.1667 315.071 92.3C315.071 94.7 315.004 96.9 314.871 98.9C314.804 100.833 314.704 102.667 314.571 104.4C314.504 106.133 314.404 107.8 314.271 109.4C314.204 111 314.171 112.6 314.171 114.2C314.171 116.4 314.338 118.5 314.671 120.5C315.004 122.5 315.638 124.667 316.571 127H311.271C310.204 125 309.504 122.767 309.171 120.3C308.838 117.767 308.671 115.533 308.671 113.6C308.671 112 308.704 110.5 308.771 109.1C308.838 107.7 308.904 106.233 308.971 104.7C309.104 103.1 309.204 101.4 309.271 99.6C309.404 97.8 309.471 95.7333 309.471 93.4C309.471 89.2667 308.604 86.2333 306.871 84.3C305.204 82.3667 302.671 81.4 299.271 81.4C293.138 81.4 288.338 84.7 284.871 91.3V92.3V127H279.371ZM334.109 107C334.709 112.2 336.343 116.133 339.009 118.8C341.743 121.467 345.709 122.8 350.909 122.8C353.709 122.8 356.376 122.333 358.909 121.4C361.443 120.467 363.976 119.333 366.509 118L369.109 122.2C366.776 123.8 364.043 125.167 360.909 126.3C357.843 127.433 354.509 128 350.909 128C343.376 128 337.676 125.8 333.809 121.4C330.009 116.933 328.109 110.567 328.109 102.3C328.109 98.8333 328.609 95.5333 329.609 92.4C330.676 89.2667 332.143 86.5 334.009 84.1C335.943 81.7 338.243 79.8 340.909 78.4C343.576 76.9333 346.543 76.2 349.809 76.2C352.276 76.2 354.609 76.5667 356.809 77.3C359.009 77.9667 360.909 78.9667 362.509 80.3C364.176 81.5667 365.476 83.1667 366.409 85.1C367.409 86.9667 367.909 89.0667 367.909 91.4C367.909 94.3333 367.276 96.8 366.009 98.8C364.743 100.8 363.076 102.4 361.009 103.6C359.009 104.8 356.676 105.667 354.009 106.2C351.409 106.733 348.709 107 345.909 107H334.109ZM349.809 81.1C347.409 81.1 345.209 81.7 343.209 82.9C341.276 84.1 339.609 85.6667 338.209 87.6C336.809 89.5333 335.709 91.7333 334.909 94.2C334.176 96.6667 333.809 99.2 333.809 101.8H345.909C349.309 101.8 352.076 101.5 354.209 100.9C356.343 100.233 358.009 99.4 359.209 98.4C360.409 97.4 361.209 96.3 361.609 95.1C362.009 93.8333 362.209 92.6 362.209 91.4C362.209 88.2667 361.043 85.7667 358.709 83.9C356.443 82.0333 353.476 81.1 349.809 81.1ZM417.963 127C416.896 125 416.196 122.767 415.863 120.3C415.529 117.767 415.363 115.533 415.363 113.6C415.363 112 415.396 110.5 415.463 109.1C415.529 107.7 415.596 106.233 415.663 104.7C415.796 103.1 415.896 101.4 415.963 99.6C416.096 97.8 416.163 95.7333 416.163 93.4C416.163 89.2667 415.229 86.2333 413.363 84.3C411.496 82.3667 408.663 81.4 404.863 81.4C401.263 81.4 398.229 82.3 395.763 84.1C393.296 85.8333 390.896 88.3 388.563 91.5V91.7V127H383.063V91.7C383.063 89.0333 382.729 86.7333 382.063 84.8C381.396 82.8667 380.396 81.2 379.063 79.8L382.463 76.5C384.063 77.6333 385.296 79.0333 386.163 80.7C387.029 82.3 387.629 83.9667 387.963 85.7C390.163 82.5 392.663 80.1333 395.463 78.6C398.329 77 401.463 76.2 404.863 76.2C410.729 76.2 414.996 77.6 417.663 80.4C420.329 83.2 421.663 87.1667 421.663 92.3C421.663 94.7 421.596 96.9 421.463 98.9C421.396 100.833 421.296 102.667 421.163 104.4C421.096 106.133 421.029 107.8 420.963 109.4C420.896 111 420.863 112.6 420.863 114.2C420.863 116.4 421.029 118.5 421.363 120.5C421.696 122.5 422.329 124.667 423.263 127H417.963Z" fill="#1E9E8F"/>
<defs>
<filter id="filter0_d" x="1.7002" y="9.43994" width="108.688" height="51.56" filterUnits="userSpaceOnUse" color-interpolation-filters="sRGB">
<feFlood flood-opacity="0" result="BackgroundImageFix"/>
<feColorMatrix in="SourceAlpha" type="matrix" values="0 0 0 0 0 0 0 0 0 0 0 0 0 0 0 0 0 0 127 0"/>
<feOffset dy="4"/>
<feGaussianBlur stdDeviation="2"/>
<feColorMatrix type="matrix" values="0 0 0 0 1 0 0 0 0 1 0 0 0 0 1 0 0 0 0.22 0"/>
<feBlend mode="normal" in2="BackgroundImageFix" result="effect1_dropShadow"/>
<feBlend mode="normal" in="SourceGraphic" in2="effect1_dropShadow" result="shape"/>
</filter>
</defs>
</svg>