<svg width="1324" height="1005" viewBox="0 0 1324 1005" fill="none" xmlns="http://www.w3.org/2000/svg">
<g clip-path="url(#clip0)">
<g opacity="0.1" filter="url(#filter0_d)">
<path d="M544.133 990.197C633.626 934.96 735.857 917.308 835.766 940.983C977.338 974.552 1155.27 961.393 1189.73 702.412C1248.59 260.108 1001.93 143.367 1001.93 143.367C1001.93 143.367 837.903 128.046 740.908 69.715C603.133 -13.1716 445.653 -23.7267 307.181 46.4031C218.629 91.2137 145.706 153.612 133.246 239.283C98.4106 478.877 155.622 610.887 48.5956 689.098C-58.4313 767.309 33.0356 982.037 115.085 974.604C197.135 967.17 382.542 885.617 454.791 980.082C480.454 1013.59 512.92 1009.47 544.133 990.197Z" fill="#00A3FF"/>
<path d="M541.507 985.942L541.506 985.942C526.332 995.311 511.435 1000.62 497.627 999.936C484.082 999.269 470.837 992.808 458.761 977.042C420.768 927.37 353.572 924.668 287.897 934.182C254.813 938.975 221.466 946.971 191.452 954.177L191.396 954.191C161.223 961.436 134.686 967.807 114.634 969.624C96.4121 971.275 76.735 960.591 58.7325 940.767C40.8571 921.082 25.3987 893.162 15.7047 862.462C-3.80474 800.678 0.656553 730.323 51.5456 693.135C106.96 652.64 119.538 598.072 122.987 524.945C123.991 503.658 124.23 480.799 124.487 456.152C125.118 395.845 125.859 324.839 138.194 240.002C150.285 156.867 221.232 95.4998 309.438 50.8644L309.44 50.8637C446.238 -18.4184 601.892 -8.08345 738.331 73.9994L738.332 73.9998C787.568 103.61 853.496 122.158 906.769 133.309C933.47 138.899 957.12 142.655 974.099 145.015C982.59 146.195 989.417 147.026 994.128 147.563C996.484 147.832 998.311 148.027 999.553 148.155C999.936 148.194 1000.26 148.227 1000.53 148.254C1000.96 148.47 1001.56 148.78 1002.32 149.191C1004.04 150.112 1006.57 151.536 1009.81 153.513C1016.27 157.467 1025.5 163.633 1036.42 172.416C1058.26 189.979 1086.87 218.002 1113.7 259.73C1167.29 343.094 1214.07 481.636 1184.78 701.752C1167.7 830.052 1115.33 896.332 1050.78 926.884C985.813 957.629 907.294 952.805 836.92 936.118L836.919 936.117C735.664 912.124 632.079 930.04 541.507 985.942Z" stroke="#133B3E" stroke-width="10"/>
</g>
<path opacity="0.1" d="M968.746 194.537H599.487V223.03H968.746V194.537Z" fill="#FF63DF"/>
<path opacity="0.1" d="M968.746 317.572H599.487V346.064H968.746V317.572Z" fill="#FF63DF"/>
<path opacity="0.1" d="M968.746 445.787H599.487V474.28H968.746V445.787Z" fill="#FF63DF"/>
<path opacity="0.1" d="M655.224 120.717H632.001V194.537H655.224V120.717Z" fill="#FF63DF"/>
<path opacity="0.1" d="M655.224 132.372H632.001V137.553H655.224V132.372Z" fill="#FF63DF"/>
<path opacity="0.1" d="M655.224 172.521H632.001V177.701H655.224V172.521Z" fill="#FF63DF"/>
<path opacity="0.1" d="M690.06 120.717H666.836V194.537H690.06V120.717Z" fill="#FF63DF"/>
<path opacity="0.1" d="M690.06 132.372H666.836V137.553H690.06V132.372Z" fill="#FF63DF"/>
<path opacity="0.1" d="M690.06 172.521H666.836V177.701H690.06V172.521Z" fill="#FF63DF"/>
<path opacity="0.1" d="M724.896 120.717H701.672V194.537H724.896V120.717Z" fill="#C76565"/>
<path opacity="0.1" d="M724.896 132.372H701.672V137.553H724.896V132.372Z" fill="#FF63DF"/>
<path opacity="0.1" d="M724.896 172.521H701.672V177.701H724.896V172.521Z" fill="#FF63DF"/>
<path opacity="0.1" d="M759.732 120.717H736.508V194.537H759.732V120.717Z" fill="#FF63DF"/>
<path opacity="0.1" d="M759.732 132.372H736.508V137.553H759.732V132.372Z" fill="#FF63DF"/>
<path opacity="0.1" d="M759.732 172.521H736.508V177.701H759.732V172.521Z" fill="#FF63DF"/>
<path opacity="0.1" d="M794.567 120.717H771.344V194.537H794.567V120.717Z" fill="#FF63DF"/>
<path opacity="0.1" d="M794.567 132.372H771.344V137.553H794.567V132.372Z" fill="#FF63DF"/>
<path opacity="0.1" d="M794.567 172.521H771.344V177.701H794.567V172.521Z" fill="#FF63DF"/>
<path opacity="0.1" d="M829.403 120.717H806.179V194.537H829.403V120.717Z" fill="#FF63DF"/>
<path opacity="0.1" d="M829.403 132.372H806.179V137.553H829.403V132.372Z" fill="#FF63DF"/>
<path opacity="0.1" d="M829.403 172.521H806.179V177.701H829.403V172.521Z" fill="#FF63DF"/>
<path opacity="0.1" d="M864.239 120.717H841.015V194.537H864.239V120.717Z" fill="#FF63DF"/>
<path opacity="0.1" d="M864.239 132.372H841.015V137.553H864.239V132.372Z" fill="#FF63DF"/>
<path opacity="0.1" d="M864.239 172.521H841.015V177.701H864.239V172.521Z" fill="#FF63DF"/>
<path opacity="0.1" d="M850.49 370.023L829.73 381.633L859.397 447.623L880.157 436.013L850.49 370.023Z" fill="#FF63DF"/>
<path opacity="0.1" d="M855.181 380.452L834.421 392.062L836.503 396.693L857.263 385.083L855.181 380.452Z" fill="#FF63DF"/>
<path opacity="0.1" d="M871.306 416.345L850.546 427.955L852.628 432.586L873.388 420.976L871.306 416.345Z" fill="#FF63DF"/>
<path opacity="0.1" d="M655.224 245.047H632.001V318.867H655.224V245.047Z" fill="#FF63DF"/>
<path opacity="0.1" d="M655.224 256.702H632.001V261.883H655.224V256.702Z" fill="#FF63DF"/>
<path opacity="0.1" d="M655.224 296.851H632.001V302.031H655.224V296.851Z" fill="#FF63DF"/>
<path opacity="0.1" d="M690.06 245.047H666.836V318.867H690.06V245.047Z" fill="#FF63DF"/>
<path opacity="0.1" d="M690.06 256.702H666.836V261.883H690.06V256.702Z" fill="#FF63DF"/>
<path opacity="0.1" d="M690.06 296.851H666.836V302.031H690.06V296.851Z" fill="#FF63DF"/>
<path opacity="0.1" d="M724.896 245.047H701.672V318.867H724.896V245.047Z" fill="#FF63DF"/>
<path opacity="0.1" d="M724.896 256.702H701.672V261.883H724.896V256.702Z" fill="#FF63DF"/>
<path opacity="0.1" d="M724.896 296.851H701.672V302.031H724.896V296.851Z" fill="#FF63DF"/>
<path opacity="0.1" d="M870.045 245.047H846.821V318.867H870.045V245.047Z" fill="#FF63DF"/>
<path opacity="0.1" d="M870.045 256.702H846.821V261.883H870.045V256.702Z" fill="#FF63DF"/>
<path opacity="0.1" d="M870.045 296.851H846.821V302.031H870.045V296.851Z" fill="#FF63DF"/>
<path opacity="0.1" d="M904.88 245.047H881.656V318.867H904.88V245.047Z" fill="#FF63DF"/>
<path opacity="0.1" d="M904.88 256.702H881.656V261.883H904.88V256.702Z" fill="#FF63DF"/>
<path opacity="0.1" d="M904.88 296.851H881.656V302.031H904.88V296.851Z" fill="#FF63DF"/>
<path opacity="0.1" d="M939.716 245.047H916.492V318.867H939.716V245.047Z" fill="#FF63DF"/>
<path opacity="0.1" d="M939.716 256.702H916.492V261.883H939.716V256.702Z" fill="#FF63DF"/>
<path opacity="0.1" d="M939.716 296.851H916.492V302.031H939.716V296.851Z" fill="#FF63DF"/>
<path opacity="0.1" d="M655.224 371.967H632.001V445.787H655.224V371.967Z" fill="#FF63DF"/>
<path opacity="0.1" d="M655.224 383.622H632.001V388.803H655.224V383.622Z" fill="#FF63DF"/>
<path opacity="0.1" d="M655.224 423.771H632.001V428.951H655.224V423.771Z" fill="#FF63DF"/>
<path opacity="0.1" d="M690.06 371.967H666.836V445.787H690.06V371.967Z" fill="#FF63DF"/>
<path opacity="0.1" d="M690.06 383.622H666.836V388.803H690.06V383.622Z" fill="#FF63DF"/>
<path opacity="0.1" d="M690.06 423.771H666.836V428.951H690.06V423.771Z" fill="#FF63DF"/>
<path opacity="0.1" d="M724.896 371.967H701.672V445.787H724.896V371.967Z" fill="#FF63DF"/>
<path opacity="0.1" d="M724.896 383.622H701.672V388.803H724.896V383.622Z" fill="#FF63DF"/>
<path opacity="0.1" d="M724.896 423.771H701.672V428.951H724.896V423.771Z" fill="#FF63DF"/>
<path opacity="0.1" d="M759.732 371.967H736.508V445.787H759.732V371.967Z" fill="#FF63DF"/>
<path opacity="0.1" d="M759.732 383.622H736.508V388.803H759.732V383.622Z" fill="#FF63DF"/>
<path opacity="0.1" d="M759.732 423.771H736.508V428.951H759.732V423.771Z" fill="#FF63DF"/>
<path opacity="0.1" d="M794.567 371.967H771.344V445.787H794.567V371.967Z" fill="#FF63DF"/>
<path opacity="0.1" d="M794.567 383.622H771.344V388.803H794.567V383.622Z" fill="#FF63DF"/>
<path opacity="0.1" d="M794.567 423.771H771.344V428.951H794.567V423.771Z" fill="#FF63DF"/>
<path opacity="0.1" d="M829.403 371.967H806.179V445.787H829.403V371.967Z" fill="#FF63DF"/>
<path opacity="0.1" d="M829.403 383.622H806.179V388.803H829.403V383.622Z" fill="#FF63DF"/>
<path opacity="0.1" d="M829.403 423.771H806.179V428.951H829.403V423.771Z" fill="#FF63DF"/>
<path opacity="0.1" d="M899.074 127.296V194.537H875.851V122.361C883.623 123.89 891.364 125.534 899.074 127.296Z" fill="#FF63DF"/>
<path opacity="0.1" d="M899.074 132.372H875.851V137.553H899.074V132.372Z" fill="#FF63DF"/>
<path opacity="0.1" d="M899.074 172.521H875.851V177.701H899.074V172.521Z" fill="#FF63DF"/>
<path opacity="0.1" d="M933.91 136.284V194.563H910.686V130.067C913.705 130.805 916.713 131.582 919.72 132.372C924.473 133.616 929.203 134.919 933.91 136.284Z" fill="#FF63DF"/>
<path opacity="0.1" d="M933.91 136.284V137.579H910.686V132.398H919.72C924.473 133.624 929.203 134.92 933.91 136.284Z" fill="#FF63DF"/>
<path opacity="0.1" d="M933.91 172.521H910.686V177.701H933.91V172.521Z" fill="#FF63DF"/>
<g opacity="0.1">
<path opacity="0.1" d="M771.796 292.033C771.796 292.033 764.759 289.365 761.346 296.294C760.453 298.169 759.999 300.266 760.025 302.389C760.051 304.513 760.557 306.594 761.496 308.442C763.726 312.923 768.313 318.803 776.998 318.233C784.372 317.792 786.822 311.524 787.449 305.683C787.69 303.498 787.427 301.281 786.685 299.241C785.944 297.201 784.749 295.405 783.213 294.024C781.676 292.642 779.849 291.72 777.905 291.344C775.96 290.969 773.962 291.152 772.098 291.877L771.796 292.033Z" fill="#FF63DF"/>
<path opacity="0.1" d="M763.03 309.076C762.091 307.229 761.585 305.147 761.558 303.024C761.532 300.901 761.986 298.804 762.879 296.928C766.27 290.012 773.33 292.667 773.33 292.667L773.69 292.525C776.376 291.441 779.329 291.515 781.969 292.732C780.511 291.764 778.879 291.169 777.191 290.99C775.502 290.811 773.798 291.052 772.203 291.696L771.843 291.839C771.843 291.839 764.807 289.171 761.393 296.099C760.5 297.975 760.046 300.072 760.072 302.195C760.099 304.318 760.605 306.4 761.544 308.248C763.289 311.958 766.091 314.915 769.509 316.653C766.769 314.836 764.527 312.216 763.03 309.076Z" fill="#FF63DF"/>
<path opacity="0.2" d="M768.162 295.361C768.162 295.361 770.774 297.654 777.114 295.361H768.162Z" fill="#FF63DF"/>
<path opacity="0.1" d="M767.593 278.719C767.593 278.719 772.063 292.24 771.692 295.776L775.233 295.361C775.233 295.361 769.265 283.511 770.763 278.719H767.593Z" fill="#FF63DF"/>
<path opacity="0.2" d="M767.593 278.719C767.593 278.719 772.063 292.24 771.692 295.776L775.233 295.361C775.233 295.361 769.265 283.511 770.763 278.719H767.593Z" fill="#FF63DF"/>
<path opacity="0.1" d="M785.87 279.859C785.87 279.859 778.821 275.844 775.675 279.159C772.528 282.475 772.04 290.958 772.04 290.958C772.04 290.958 783.524 292.693 785.87 279.859Z" fill="#FF63DF"/>
<path opacity="0.1" d="M785.87 279.859C785.87 279.859 778.821 275.844 775.675 279.159C772.528 282.475 772.04 290.958 772.04 290.958C772.04 290.958 783.524 292.693 785.87 279.859Z" fill="#FF63DF"/>
<path opacity="0.1" d="M772.028 290.958C772.028 290.958 773.875 281.115 785.858 279.846L772.028 290.958Z" fill="#FF63DF"/>
</g>
<g opacity="0.1">
<path opacity="0.1" d="M920.429 420.248C920.429 420.248 913.392 417.58 909.978 424.509C909.085 426.385 908.631 428.481 908.657 430.605C908.684 432.728 909.19 434.81 910.129 436.657C912.358 441.138 916.945 447.018 925.631 446.448C933.004 446.008 935.454 439.739 936.081 433.898C936.322 431.714 936.059 429.496 935.318 427.456C934.577 425.416 933.381 423.621 931.845 422.239C930.309 420.857 928.482 419.935 926.537 419.559C924.592 419.184 922.594 419.367 920.73 420.093L920.429 420.248Z" fill="#FF63DF"/>
<path opacity="0.1" d="M911.662 437.292C910.723 435.444 910.217 433.363 910.19 431.239C910.164 429.116 910.618 427.019 911.511 425.144C914.902 418.228 921.962 420.883 921.962 420.883L922.322 420.74C925.008 419.656 927.961 419.73 930.601 420.947C929.143 419.979 927.511 419.384 925.823 419.205C924.134 419.026 922.431 419.267 920.835 419.911L920.475 420.054C920.475 420.054 913.439 417.386 910.025 424.315C909.132 426.19 908.678 428.287 908.704 430.41C908.731 432.534 909.237 434.615 910.176 436.463C911.921 440.173 914.723 443.13 918.141 444.868C915.401 443.051 913.159 440.431 911.662 437.292Z" fill="#FF63DF"/>
<path opacity="0.2" d="M916.794 423.576C916.794 423.576 919.407 425.869 925.747 423.576H916.794Z" fill="#FF63DF"/>
<path opacity="0.1" d="M916.225 406.934C916.225 406.934 920.696 420.455 920.324 423.991L923.866 423.576C923.866 423.576 917.897 411.726 919.395 406.934H916.225Z" fill="#FF63DF"/>
<path opacity="0.2" d="M916.225 406.934C916.225 406.934 920.696 420.455 920.324 423.991L923.866 423.576C923.866 423.576 917.897 411.726 919.395 406.934H916.225Z" fill="#FF63DF"/>
<path opacity="0.1" d="M934.502 408.074C934.502 408.074 927.454 404.059 924.307 407.375C921.16 410.69 920.672 419.173 920.672 419.173C920.672 419.173 932.156 420.908 934.502 408.074Z" fill="#FF63DF"/>
<path opacity="0.1" d="M934.502 408.074C934.502 408.074 927.454 404.059 924.307 407.375C921.16 410.69 920.672 419.173 920.672 419.173C920.672 419.173 932.156 420.908 934.502 408.074Z" fill="#FF63DF"/>
<path opacity="0.1" d="M920.661 419.173C920.661 419.173 922.507 409.33 934.491 408.061L920.661 419.173Z" fill="#FF63DF"/>
</g>
<path opacity="0.1" d="M1155.41 815.967C1190.04 815.967 1218.11 804.834 1218.11 791.101C1218.11 777.368 1190.04 766.235 1155.41 766.235C1120.78 766.235 1092.7 777.368 1092.7 791.101C1092.7 804.834 1120.78 815.967 1155.41 815.967Z" fill="black"/>
<path d="M1155.45 791.308C1155.45 791.308 1191.23 655.853 1148.74 556.143C1130.92 514.298 1125 467.325 1133.23 421.919C1137.17 400.38 1142.87 379.29 1150.26 358.912" stroke="#535461" stroke-width="2" stroke-miterlimit="10"/>
<path d="M1123.83 295.892C1123.83 312.495 1150.79 360.647 1150.79 360.647C1150.79 360.647 1177.74 312.508 1177.74 295.892C1177.74 287.92 1174.9 280.274 1169.84 274.637C1164.79 269 1157.93 265.833 1150.79 265.833C1143.64 265.833 1136.78 269 1131.73 274.637C1126.67 280.274 1123.83 287.92 1123.83 295.892Z" fill="#FFD363"/>
<path d="M1079.28 387.845C1087.41 401.78 1133.45 425.856 1133.45 425.856C1133.45 425.856 1132.61 369.104 1124.52 355.169C1122.6 351.853 1120.11 348.991 1117.19 346.748C1114.27 344.505 1110.99 342.925 1107.53 342.097C1104.07 341.269 1100.49 341.21 1097.01 341.923C1093.52 342.636 1090.2 344.107 1087.23 346.252C1084.25 348.398 1081.69 351.176 1079.68 354.427C1077.67 357.678 1076.25 361.34 1075.51 365.202C1074.76 369.064 1074.71 373.051 1075.35 376.936C1075.99 380.822 1077.31 384.528 1079.23 387.845H1079.28Z" fill="#FF8863"/>
<path d="M1081.2 544.992C1094.49 552.465 1145.17 547.298 1145.17 547.298C1145.17 547.298 1118.76 498.783 1105.46 491.31C1102.3 489.533 1098.86 488.467 1095.33 488.174C1091.8 487.881 1088.25 488.366 1084.89 489.602C1081.53 490.838 1078.42 492.8 1075.74 495.376C1073.06 497.952 1070.86 501.093 1069.26 504.618C1067.67 508.142 1066.72 511.983 1066.45 515.919C1066.19 519.856 1066.62 523.812 1067.73 527.561C1068.84 531.31 1070.6 534.779 1072.91 537.77C1075.22 540.761 1078.03 543.215 1081.2 544.992Z" fill="#63FFDA"/>
<path d="M1106.74 663.52C1118.71 673.389 1169.45 677.857 1169.45 677.857C1169.45 677.857 1150.77 625.056 1138.8 615.187C1135.96 612.839 1132.72 611.139 1129.29 610.184C1125.86 609.23 1122.29 609.039 1118.79 609.623C1115.28 610.207 1111.92 611.554 1108.89 613.587C1105.85 615.621 1103.21 618.301 1101.1 621.475C1099 624.648 1097.47 628.253 1096.62 632.084C1095.76 635.914 1095.59 639.895 1096.12 643.8C1096.64 647.704 1097.85 651.455 1099.67 654.839C1101.49 658.222 1103.9 661.172 1106.74 663.52Z" fill="#FF63D3"/>
<path d="M1190.05 429.068C1179.37 440.633 1129.66 452.613 1129.66 452.613C1129.66 452.613 1141.84 397.506 1152.52 385.941C1155.05 383.168 1158.05 380.982 1161.35 379.507C1164.64 378.032 1168.16 377.297 1171.71 377.345C1175.26 377.394 1178.77 378.224 1182.03 379.788C1185.29 381.352 1188.25 383.62 1190.72 386.46C1193.19 389.301 1195.14 392.659 1196.45 396.341C1197.75 400.022 1198.39 403.956 1198.33 407.915C1198.27 411.874 1197.51 415.781 1196.09 419.411C1194.67 423.041 1192.63 426.323 1190.07 429.068H1190.05Z" fill="#B1FF63"/>
<path d="M1218.22 568.11C1204.92 575.583 1154.25 570.415 1154.25 570.415C1154.25 570.415 1180.65 521.901 1193.95 514.428C1197.11 512.651 1200.55 511.585 1204.08 511.292C1207.61 510.999 1211.16 511.484 1214.52 512.72C1217.88 513.955 1220.99 515.917 1223.67 518.494C1226.35 521.07 1228.55 524.21 1230.15 527.735C1231.74 531.26 1232.7 535.1 1232.96 539.037C1233.22 542.974 1232.79 546.929 1231.68 550.679C1230.57 554.428 1228.81 557.897 1226.5 560.888C1224.19 563.879 1221.38 566.333 1218.22 568.11Z" fill="#637CFF"/>
<path d="M1229.06 707.45C1217.09 717.319 1166.36 721.787 1166.36 721.787C1166.36 721.787 1185.03 668.985 1197 659.117C1199.84 656.717 1203.08 654.969 1206.54 653.976C1209.99 652.983 1213.58 652.763 1217.11 653.329C1220.64 653.896 1224.03 655.237 1227.09 657.277C1230.15 659.316 1232.82 662.012 1234.94 665.208C1237.06 668.405 1238.59 672.039 1239.44 675.9C1240.29 679.761 1240.45 683.772 1239.9 687.7C1239.35 691.629 1238.11 695.398 1236.25 698.788C1234.39 702.178 1231.94 705.122 1229.05 707.45H1229.06Z" fill="#FF6388"/>
<path opacity="0.1" d="M999.343 744.477C1033.97 744.477 1062.05 733.344 1062.05 719.611C1062.05 705.878 1033.97 694.745 999.343 694.745C964.712 694.745 936.639 705.878 936.639 719.611C936.639 733.344 964.712 744.477 999.343 744.477Z" fill="black"/>
<path d="M996.8 723.147C996.8 723.147 1013.56 659.687 993.653 612.972C985.193 593.438 982.642 571.37 986.384 550.082C988.233 539.992 990.908 530.112 994.373 520.567" stroke="#535461" stroke-width="2" stroke-miterlimit="10"/>
<path d="M981.983 491.038C981.983 498.809 994.605 521.37 994.605 521.37C994.605 521.37 1007.23 498.809 1007.23 491.038C1007.23 487.303 1005.9 483.721 1003.53 481.079C1001.16 478.438 997.949 476.954 994.6 476.954C991.25 476.954 988.039 478.438 985.67 481.079C983.302 483.721 981.972 487.303 981.972 491.038H981.983Z" fill="#FFC163"/>
<path d="M961.117 534.113C964.902 540.589 986.5 551.921 986.5 551.921C986.5 551.921 986.106 525.333 982.32 518.805C981.419 517.253 980.252 515.913 978.887 514.863C977.521 513.813 975.984 513.073 974.362 512.686C972.741 512.299 971.066 512.272 969.435 512.606C967.804 512.941 966.248 513.63 964.856 514.635C963.463 515.64 962.262 516.941 961.321 518.464C960.38 519.987 959.716 521.702 959.369 523.511C959.022 525.319 958.998 527.187 959.297 529.006C959.597 530.825 960.215 532.561 961.117 534.113Z" fill="#FFEF63"/>
<path d="M962.022 607.74C968.246 611.237 991.993 608.828 991.993 608.828C991.993 608.828 979.626 586.099 973.414 582.589C971.933 581.757 970.32 581.258 968.666 581.12C967.013 580.983 965.351 581.211 963.776 581.79C960.596 582.959 957.962 585.49 956.454 588.825C954.947 592.16 954.689 596.027 955.738 599.574C956.786 603.121 959.055 606.059 962.046 607.74H962.022Z" fill="#6385FF"/>
<path d="M973.959 663.274C979.568 667.898 1003.34 669.996 1003.34 669.996C1003.34 669.996 994.582 645.259 988.985 640.636C987.652 639.536 986.137 638.74 984.528 638.294C982.918 637.847 981.246 637.758 979.606 638.032C977.966 638.307 976.39 638.938 974.969 639.892C973.548 640.845 972.309 642.101 971.323 643.588C970.338 645.076 969.624 646.765 969.224 648.56C968.823 650.355 968.744 652.22 968.989 654.049C969.235 655.879 969.802 657.636 970.656 659.221C971.511 660.806 972.637 662.188 973.971 663.287L973.959 663.274Z" fill="#FF63DF"/>
<path d="M1013.01 553.436C1008.01 558.85 984.7 564.471 984.7 564.471C984.7 564.471 990.413 538.646 995.407 533.233C997.809 530.631 1001.04 529.2 1004.39 529.255C1007.74 529.309 1010.93 530.845 1013.26 533.524C1015.59 536.203 1016.88 539.806 1016.83 543.541C1016.78 547.275 1015.4 550.835 1013 553.436H1013.01Z" fill="#63FFB4"/>
<path d="M1026.24 618.58C1020.01 622.077 996.266 619.668 996.266 619.668C996.266 619.668 1008.63 596.939 1014.84 593.429C1017.84 591.748 1021.3 591.46 1024.48 592.63C1027.66 593.799 1030.3 596.33 1031.8 599.665C1033.31 603 1033.57 606.867 1032.52 610.414C1031.47 613.961 1029.2 616.899 1026.21 618.58H1026.24Z" fill="#FC63FF"/>
<path d="M1031.26 683.814C1025.66 688.438 1001.89 690.536 1001.89 690.536C1001.89 690.536 1010.64 665.8 1016.24 661.176C1017.57 660.076 1019.09 659.279 1020.69 658.831C1022.3 658.383 1023.97 658.293 1025.62 658.566C1027.26 658.839 1028.83 659.47 1030.25 660.422C1031.67 661.374 1032.91 662.629 1033.9 664.116C1034.89 665.602 1035.6 667.291 1036 669.085C1036.4 670.88 1036.48 672.745 1036.24 674.574C1036 676.403 1035.43 678.161 1034.58 679.746C1033.72 681.332 1032.6 682.714 1031.26 683.814Z" fill="#FF6363"/>
<path d="M1321.82 849.393L962.266 636.673H886.87L906.378 455.565C906.805 451.601 906.519 447.582 905.536 443.742C904.553 439.903 902.893 436.321 900.654 433.206C898.414 430.09 895.64 427.505 892.494 425.6C889.348 423.695 885.892 422.51 882.33 422.113L880.31 422.204H880.112L605.828 426.853C598.806 426.299 591.838 428.554 586.173 433.214C580.508 437.873 576.517 444.631 574.917 452.276L562.144 556.35L560.297 553.203L559.403 551.688C566.15 546.792 552.842 517.691 541.567 495.999L540.545 494.03C547.698 490.702 555.641 487.554 555.641 487.554L538.049 475.303C538.049 475.303 521.862 449.168 504.63 427.967C516.242 346.867 491.717 253.128 491.427 251.833L490.777 252.027C494.181 245.879 495.975 238.791 495.956 231.564C495.958 226.06 494.911 220.618 492.885 215.599C490.859 210.58 487.901 206.098 484.205 202.45C483.519 195.509 482.532 188.36 481.116 180.835C480.86 179.54 480.593 178.103 480.303 176.73C478.979 170.254 477.644 163.779 475.89 157.433C474.675 152.908 473.165 148.489 471.373 144.21C462.212 122.62 443.365 107.183 422.72 101.743C412.095 98.9458 401.203 103.284 391.286 101.212C386.293 100.189 381.822 94.8404 376.957 92.6775C370.791 89.9319 364.114 88.6498 357.588 87.4971C349.46 85.9819 341.018 84.4795 332.925 86.4481C319.571 89.6859 309.387 101.756 301.898 114.5C294.408 127.244 288.591 141.36 279.336 152.576C273.147 160.088 265.529 166.123 260.014 174.256C251.885 186.223 249.064 201.453 246.451 216.243C243.223 234.44 239.995 252.895 240.064 271.376C240.064 275.663 240.122 279.962 240.459 284.262C241.307 295.296 243.56 306.175 244.094 317.223C244.094 318.414 244.175 319.605 244.198 320.797C244.082 341.014 238.729 360.945 233.411 380.372C231.715 386.549 229.997 392.779 227.988 398.866C217.305 399.876 207.087 402.259 199.295 406.947C170.823 423.939 148.911 461.834 148.911 461.834L107.259 504.572C107.259 504.572 123.702 513.133 131.377 527.806C131.652 528.324 131.967 528.813 132.318 529.27L131.714 530.824L107.259 593.818C107.259 593.818 122.61 606.043 145.578 603.596C149.311 603.075 153.1 603.383 156.726 604.502C156.726 605.279 156.656 606.069 156.633 606.898C155.228 642.941 154.485 721.916 171.206 775.262L133.421 824.475L57.9434 849.406L54.6572 914.161H1324.01L1321.82 849.393ZM233.213 607.921C236.45 608.657 239.608 609.777 242.631 611.263V656.28C240.633 640.377 237.858 624.084 233.991 610.537C233.748 609.657 233.527 608.789 233.213 607.921ZM451.157 694.551C451.157 694.395 451.157 694.24 451.157 694.084C451.203 692.513 451.394 690.95 451.726 689.422C452.198 687.053 453.246 684.875 454.757 683.128C457.555 680.007 460.447 676.652 463.338 673.013C465.118 678.138 467.688 682.876 470.932 687.013C474.648 691.637 482.95 695.794 494.609 699.55C480.211 697.058 465.708 695.39 451.157 694.551ZM545.922 688.334L507.974 700.858C490.034 696.377 477.272 691.248 472.546 685.317C469.24 681.065 466.672 676.164 464.975 670.863C478.515 653.354 491.683 629.796 494.702 597.625C494.783 596.783 494.841 595.916 494.911 595.035C499.027 592.425 502.915 589.39 506.523 585.969L507.208 587.757C517.411 613.632 531.842 637.163 549.765 657.148L545.922 688.334ZM489.674 253.918C492.658 265.923 512.898 350.921 502.749 425.661C496.432 418.072 490.057 411.286 484.344 406.818C482.991 405.773 481.575 404.834 480.106 404.007C478.84 390.305 478.259 376.098 478.166 362.02C478.282 344.588 479.211 327.298 480.489 310.851C481.871 293.418 483.496 276.789 484.506 260.432C486.441 258.482 488.174 256.297 489.674 253.918Z" fill="url(#paint0_linear)"/>
<path d="M471.153 274.847H461.248V198.436H471.153C478.716 198.436 485.97 201.787 491.319 207.752C496.667 213.717 499.672 221.807 499.672 230.243V242.961C499.681 247.145 498.95 251.289 497.521 255.158C496.092 259.026 493.992 262.541 491.343 265.503C488.694 268.465 485.547 270.815 482.083 272.418C478.618 274.022 474.904 274.847 471.153 274.847Z" fill="#DFE6F5"/>
<path d="M459.843 274.847H462.653C466.52 274.847 469.655 271.35 469.655 267.037V206.31C469.655 201.997 466.52 198.5 462.653 198.5H459.843C455.976 198.5 452.841 201.997 452.841 206.31V267.037C452.841 271.35 455.976 274.847 459.843 274.847Z" fill="#535461"/>
<g opacity="0.1">
<path opacity="0.1" d="M471.153 274.847H461.248V198.436H471.153C478.716 198.436 485.97 201.787 491.319 207.752C496.667 213.717 499.672 221.807 499.672 230.243V242.961C499.681 247.145 498.95 251.289 497.521 255.158C496.092 259.026 493.992 262.541 491.343 265.503C488.694 268.465 485.547 270.815 482.083 272.418C478.618 274.022 474.904 274.847 471.153 274.847Z" fill="black"/>
<path opacity="0.1" d="M459.843 274.847H462.653C466.52 274.847 469.655 271.35 469.655 267.037V206.31C469.655 201.997 466.52 198.5 462.653 198.5H459.843C455.976 198.5 452.841 201.997 452.841 206.31V267.037C452.841 271.35 455.976 274.847 459.843 274.847Z" fill="black"/>
</g>
<path d="M475.867 238.882H302.745V439.169H475.867V238.882Z" fill="#865A61"/>
<path opacity="0.1" d="M475.867 211.296H302.745V411.584H475.867V211.296Z" fill="black"/>
<path d="M469.957 404.992L459.506 489.691L454.583 529.503L452.771 544.125L437.594 577.124L409.726 637.683L355.963 644.884L261.395 496.141C261.395 496.141 211.882 390.603 287.162 400.187C329.372 405.574 339.416 363.432 340.171 325.369C340.36 306.204 338.804 287.068 335.526 268.255L410.794 309.037C409.045 318.129 407.729 326.482 406.846 334.098C403.177 365.258 406.219 384.684 412.582 396.457C429.524 427.811 469.957 404.992 469.957 404.992Z" fill="#915C4C"/>
<path opacity="0.1" d="M410.817 309.05C409.068 318.142 407.752 326.496 406.869 334.111C399.058 336.59 390.977 337.845 382.856 337.841C367.903 337.868 353.198 333.581 340.17 325.395C340.36 306.23 338.804 287.094 335.526 268.281L410.817 309.05Z" fill="black"/>
<path d="M382.856 335.432C430.96 335.432 469.957 291.938 469.957 238.286C469.957 184.634 430.96 141.14 382.856 141.14C334.751 141.14 295.755 184.634 295.755 238.286C295.755 291.938 334.751 335.432 382.856 335.432Z" fill="#915C4C"/>
<path d="M498.998 791.178L140.91 822.39L198.97 746.834C261.268 704.381 260.734 646.023 252.454 609.825C249.885 598.224 246.002 587.036 240.9 576.528L364.672 577.176H365.717L375.889 602.961L376.353 604.127L383.924 623.307L409.726 571.736L418.702 555.599L423.718 546.533C423.718 546.533 497.918 527.34 498.986 576.515C499.115 582.161 498.917 587.811 498.394 593.429C494.702 633.007 475.287 659.324 459.204 677.261C440.927 697.633 498.998 791.178 498.998 791.178Z" fill="#ECA075"/>
<path d="M456.231 685.809C453.607 697.465 460.226 717.5 469.005 737.173C426.911 742.224 380.754 739.594 380.754 739.594L333.389 753.996L200.061 797.175C194.255 788.795 189.611 778.266 185.767 766.403L198.981 749.204C240.564 720.867 254.15 685.446 256.135 654.26C256.925 640.106 255.687 625.901 252.466 612.182C249.898 600.591 246.02 589.411 240.924 578.911L364.695 579.559H365.74L375.912 605.344L376.376 606.51L383.947 625.69L409.749 574.119L418.702 557.982L423.718 548.916C423.718 548.916 497.918 529.697 498.998 578.911C499.127 584.557 498.929 590.207 498.406 595.825C494.713 635.403 475.298 661.72 459.216 679.657C457.734 681.364 456.701 683.492 456.231 685.809Z" fill="#ECA075"/>
<path d="M735.567 748C733.419 776.777 671.051 738.403 671.051 738.403C671.051 738.403 651.694 731.202 586.099 684.436C552.796 660.698 526.534 626.501 510.621 586.151C508.112 579.914 506.013 573.482 504.339 566.905L549.533 529.697L562.712 552.167L606.524 626.83L671.04 674.749C671.04 674.749 737.715 719.223 735.567 748Z" fill="#915C4C"/>
<path d="M1309.78 842.749H69.9385L194.058 801.785L504.351 699.369L702.218 634.057H957.076L1309.78 842.749Z" fill="#888594"/>
<path d="M69.9386 842.749L66.7104 906.313H1311.92L1309.78 842.749H69.9386Z" fill="#CBCDDA"/>
<path opacity="0.1" d="M69.9386 842.749L66.7104 906.313H1311.92L1309.78 842.749H69.9386Z" fill="black"/>
<path d="M394.99 752.856L657.059 722.823L660.287 780.39L540.499 793.639C532.236 794.387 523.919 793.666 515.859 791.502L394.77 756.612C394.383 756.499 394.045 756.24 393.811 755.879C393.578 755.518 393.464 755.077 393.49 754.633C393.517 754.188 393.681 753.768 393.954 753.444C394.228 753.12 394.594 752.912 394.99 752.856Z" fill="#535461"/>
<path opacity="0.2" d="M394.99 752.856L657.059 722.823L660.287 780.39L540.499 793.639C532.236 794.387 523.919 793.666 515.859 791.502L394.77 756.612C394.383 756.499 394.045 756.24 393.811 755.879C393.578 755.518 393.464 755.077 393.49 754.633C393.517 754.188 393.681 753.768 393.954 753.444C394.228 753.12 394.594 752.912 394.99 752.856Z" fill="black"/>
<path d="M394.99 751.652L659.219 721.619L662.447 779.186L542.647 790.013C534.39 790.772 526.077 790.064 518.018 787.915L394.77 755.421C394.376 755.314 394.029 755.057 393.789 754.693C393.55 754.33 393.433 753.883 393.459 753.433C393.485 752.982 393.653 752.557 393.934 752.231C394.214 751.905 394.588 751.7 394.99 751.652Z" fill="#535461"/>
<path opacity="0.3" d="M457.637 753.75L597.351 737.872L599.058 768.307L535.715 774.044C531.346 774.441 526.948 774.061 522.686 772.918L457.52 755.732C457.316 755.673 457.136 755.537 457.012 755.346C456.888 755.155 456.828 754.922 456.841 754.687C456.855 754.452 456.942 754.23 457.087 754.058C457.233 753.887 457.427 753.778 457.637 753.75Z" fill="white"/>
<path opacity="0.1" d="M562.712 552.193C561.865 553.488 560.39 554.071 558.137 553.708C536.632 550.108 511.899 584.894 511.899 584.894C511.899 584.894 511.458 585.361 510.656 586.19C508.147 579.953 506.048 573.521 504.374 566.944L549.533 529.697L562.712 552.193Z" fill="black"/>
<path opacity="0.1" d="M498.406 595.747C488.292 602.029 474.369 606.536 463.512 594.452C444.759 573.536 411.885 576.321 409.842 576.45C413.198 575.932 416.17 568.239 418.702 557.93L423.718 548.865C423.718 548.865 497.918 529.697 498.998 578.911C499.124 584.532 498.926 590.155 498.406 595.747Z" fill="black"/>
<path opacity="0.1" d="M459.483 489.691L452.748 544.086L437.571 577.085C428.166 574.399 418.44 573.381 408.75 574.067C419.445 572.423 426.354 497.889 426.354 497.889L426.97 497.734L459.483 489.691Z" fill="black"/>
<path d="M558.137 551.312C536.632 547.712 511.899 582.499 511.899 582.499C511.899 582.499 482.869 613.685 463.512 592.095C444.759 571.179 411.885 573.964 409.842 574.093C420.536 572.436 427.445 497.902 427.445 497.902L428.061 497.747L531.256 472.156C531.256 472.156 537.41 482.672 544.354 496.063C556.883 520.191 571.979 553.631 558.137 551.312Z" fill="#ECA075"/>
<path opacity="0.1" d="M532.324 503.342C533.404 505.738 515.115 517.73 506.523 514.13C497.93 510.53 476.413 529.671 474.265 532.119C472.117 534.567 423.73 528.519 423.73 528.519C425.737 518.37 427.184 508.093 428.061 497.747L531.256 472.156C531.256 472.156 537.41 482.672 544.354 496.063C537.933 499.003 531.802 502.163 532.324 503.342Z" fill="black"/>
<path opacity="0.1" d="M469.957 404.992L459.506 489.691L454.583 529.503C440.161 528.299 422.673 526.136 422.673 526.136C422.673 526.136 440.95 440.983 410.841 396.625C410.841 396.625 411.479 396.625 412.629 396.496C429.524 427.811 469.957 404.992 469.957 404.992Z" fill="black"/>
<path d="M411.897 396.599C411.897 396.599 466.74 391.808 488.245 408.592C509.751 425.377 540.94 475.756 540.94 475.756L558.149 487.749C558.149 487.749 531.268 498.537 532.347 500.946C533.427 503.355 515.139 515.334 506.546 511.734C497.953 508.134 476.436 527.275 474.288 529.723C472.14 532.171 423.753 526.123 423.753 526.123C423.753 526.123 442.007 440.97 411.897 396.599Z" fill="#ECA075"/>
<path d="M808.118 727.006C795.67 726.669 503.016 718.199 475.078 683.439C445.328 646.425 474.207 539.773 498.522 462.766C524.985 378.934 493.436 258.554 493.122 257.182L495.201 256.573C495.526 257.959 527.238 379.038 500.554 463.556C462.734 583.366 454.919 654.765 476.68 681.833C504.014 715.829 805.134 724.571 808.176 724.571L808.118 727.006Z" fill="#DFE6F5"/>
<path d="M605.793 428.174L876.512 423.589C880.002 423.986 883.386 425.155 886.467 427.027C889.547 428.899 892.262 431.436 894.454 434.491C896.645 437.547 898.268 441.058 899.229 444.821C900.19 448.584 900.469 452.523 900.05 456.407L869.336 741.589C868.602 748.44 865.734 754.787 861.233 759.521C856.732 764.255 850.883 767.076 844.708 767.491L568.008 786.594C564.09 786.856 560.169 786.14 556.53 784.5C552.891 782.859 549.626 780.334 546.972 777.109C544.319 773.883 542.343 770.039 541.189 765.855C540.035 761.671 539.732 757.252 540.302 752.921L577.042 453.208C578.027 445.712 581.564 438.927 586.919 434.265C592.274 429.602 599.033 427.421 605.793 428.174Z" fill="#535461"/>
<path opacity="0.2" d="M605.793 428.174L876.512 423.589C880.002 423.986 883.386 425.155 886.467 427.027C889.547 428.899 892.262 431.436 894.454 434.491C896.645 437.547 898.268 441.058 899.229 444.821C900.19 448.584 900.469 452.523 900.05 456.407L869.336 741.589C868.602 748.44 865.734 754.787 861.233 759.521C856.732 764.255 850.883 767.076 844.708 767.491L568.008 786.594C564.09 786.856 560.169 786.14 556.53 784.5C552.891 782.859 549.626 780.334 546.972 777.109C544.319 773.883 542.343 770.039 541.189 765.855C540.035 761.671 539.732 757.252 540.302 752.921L577.042 453.208C578.027 445.712 581.564 438.927 586.919 434.265C592.274 429.602 599.033 427.421 605.793 428.174Z" fill="black"/>
<path d="M607.941 428.174L878.661 423.589C882.154 423.98 885.543 425.144 888.629 427.013C891.715 428.882 894.436 431.419 896.632 434.475C898.828 437.53 900.455 441.044 901.419 444.81C902.383 448.576 902.663 452.519 902.244 456.407L871.531 741.589C870.797 748.44 867.929 754.787 863.427 759.521C858.926 764.255 853.078 767.076 846.902 767.491L570.167 786.594C566.249 786.856 562.328 786.14 558.69 784.5C555.051 782.859 551.786 780.334 549.132 777.109C546.478 773.883 544.503 770.039 543.349 765.855C542.195 761.671 541.892 757.252 542.461 752.921L579.201 453.208C580.186 445.714 583.722 438.932 589.074 434.27C594.426 429.607 601.183 427.424 607.941 428.174Z" fill="#535461"/>
<path opacity="0.3" d="M740.398 604.671C747.523 604.671 753.299 598.229 753.299 590.282C753.299 582.336 747.523 575.894 740.398 575.894C733.273 575.894 727.497 582.336 727.497 590.282C727.497 598.229 733.273 604.671 740.398 604.671Z" fill="#40D6B2"/>
<path opacity="0.1" d="M469.005 737.186C426.911 742.237 380.754 739.607 380.754 739.607L333.389 753.996L200.061 797.175C194.255 788.795 189.611 778.266 185.767 766.403L198.981 749.204C240.564 720.867 254.15 685.446 256.135 654.26C259.688 685.278 260.281 713.213 260.281 713.213L314.044 707.217L392.157 686.495C397.536 685.068 403.047 684.35 408.576 684.358C418.748 684.358 436.851 684.604 456.185 685.77C453.607 697.439 460.226 717.487 469.005 737.186Z" fill="black"/>
<path opacity="0.1" d="M528.028 721.618C503.295 753.996 376.411 746.808 376.411 746.808L329.093 761.197L195.753 804.363C195.173 803.521 194.592 802.666 194.058 801.772L504.363 699.356C524.173 703.811 536.33 710.753 528.028 721.618Z" fill="black"/>
<path d="M528.028 719.223C503.294 751.6 376.411 744.412 376.411 744.412L329.093 758.788L195.753 801.967C164.401 756.638 165.098 648.614 166.805 604.917C167.269 593.183 167.792 586.086 167.792 586.086C167.792 586.086 212.951 554.9 233.388 586.086C237.034 591.642 240.088 599.413 242.677 608.426C254.533 649.986 255.984 718.005 255.984 718.005L309.747 712.009L387.861 691.287C393.243 689.859 398.758 689.142 404.291 689.15C436.665 689.254 549.254 691.43 528.028 719.223Z" fill="#915C4C"/>
<path opacity="0.1" d="M242.665 608.439C235.803 606.782 227.477 607.144 216.19 612.48C193.605 623.268 176.408 620.872 176.408 620.872C176.408 620.872 177.79 608.634 166.816 604.917C167.281 593.183 167.803 586.086 167.803 586.086C167.803 586.086 212.962 554.9 233.399 586.086C237.01 591.642 240.087 599.413 242.665 608.439Z" fill="black"/>
<path opacity="0.1" d="M376.353 606.484C375.633 606.652 365.96 608.685 347.323 604.075C327.966 599.283 320.442 608.867 309.689 613.672C298.937 618.477 271.033 620.872 260.234 616.081C257.691 614.941 255.137 613.49 252.431 612.195C249.875 600.601 246.009 589.417 240.924 578.911L364.695 579.559L375.912 605.344L376.353 606.484Z" fill="black"/>
<path d="M376.353 604.088C376.353 604.088 366.681 606.484 347.323 601.692C327.966 596.9 320.442 606.484 309.689 611.289C298.937 616.093 270.975 618.489 260.223 613.685C249.47 608.88 238.717 599.296 216.097 610.084C193.477 620.872 176.315 618.476 176.315 618.476C176.315 618.476 178.463 599.283 155.89 601.64C133.316 603.997 118.256 592.043 118.256 592.043L142.246 530.241L149.445 511.682L329.36 497.967H330.219L376.353 604.088Z" fill="#ECA075"/>
<path opacity="0.1" d="M347.324 546.534C335.491 524.944 273.124 544.138 273.124 544.138C273.124 544.138 243.014 553.734 236.558 535.745C230.101 517.756 183.933 529.697 183.933 529.697C183.933 529.697 150.432 543.71 142.327 530.267L149.527 511.708L329.36 497.967L347.324 546.534Z" fill="black"/>
<path d="M295.755 404.992C295.755 404.992 236.616 391.795 208.666 408.592C180.716 425.39 159.211 462.559 159.211 462.559L118.337 504.533C118.337 504.533 134.466 512.926 141.99 527.314C149.515 541.703 183.933 527.314 183.933 527.314C183.933 527.314 230.171 515.322 236.627 533.31C243.084 551.299 273.193 541.703 273.193 541.703C273.193 541.703 335.561 522.509 347.393 544.099L295.755 404.992Z" fill="#ECA075"/>
<path opacity="0.1" d="M363.929 97.6896C355.916 96.1873 347.672 94.7238 339.729 96.6535C326.631 99.8265 316.645 111.677 309.295 124.162C301.944 136.646 296.231 150.504 287.162 161.499C281.089 168.868 273.623 174.787 268.212 182.765C260.246 194.512 257.471 209.496 254.904 223.949C251.142 245.163 247.368 266.688 249.029 288.277C249.865 299.104 252.071 309.763 252.594 320.655C253.65 342.529 247.856 364.002 242.143 384.956C238.183 399.436 234.096 414.187 226.27 426.555C221.079 434.753 214.425 441.617 208.085 448.727C206.555 450.177 205.403 452.061 204.753 454.18C203.382 460.37 210.083 464.54 215.203 467.338C230.868 476.054 241.144 493.059 253.325 507.072C265.506 521.085 282.936 533.116 299.692 527.495C304.661 525.825 309.376 522.652 314.555 522.755C318.038 522.82 321.383 524.4 324.692 525.695C332.925 528.92 341.594 530.54 350.319 530.487C352.247 530.671 354.181 530.22 355.882 529.192C358.471 527.236 358.97 523.299 359.226 519.828C360.863 498.045 362.489 476.183 361.386 454.361C358.889 404.94 317.945 347.774 333.517 301.396C340.287 281.167 352.665 263.761 359.516 243.57C366.739 222.291 392.204 205.015 397.255 182.959C397.824 180.473 398.602 177.779 400.552 176.484C403.235 174.645 406.73 176.251 409.319 178.245C423.974 189.512 428.746 210.7 434.076 229.635C438.371 244.885 443.693 259.752 449.996 274.109C453.48 281.879 460.958 290.88 467.507 286.166C464.209 318.906 445.165 347.502 440.857 380.087C436.654 411.843 446.837 444.298 442.889 476.08C440.29 496.542 431.982 515.573 419.143 530.474C433.632 533.685 448.533 533.834 463.071 530.915C477.806 527.949 493.575 520.165 498.894 504.546C504.7 487.36 495.724 468.918 491.16 451.253C480.21 408.786 481.058 358.562 484.53 314.542C488.106 269.278 493.471 229.648 484.379 185.355C482.149 174.489 479.885 163.533 475.612 153.457C466.624 132.282 448.138 117.129 427.875 111.793C417.425 109.048 406.765 113.309 397.034 111.288C392.134 110.265 387.745 105.033 382.984 102.909C376.876 100.124 370.327 98.8811 363.929 97.6896Z" fill="#BD2929"/>
<path d="M498.835 502.06C493.517 517.679 477.748 525.462 463.001 528.428C448.462 531.341 433.563 531.192 419.073 527.988C431.909 513.083 440.216 494.054 442.82 473.593C446.779 441.798 436.596 409.343 440.787 377.6C445.095 345.002 464.139 316.407 467.437 283.666C460.888 288.381 453.352 279.418 449.914 271.609C443.614 257.251 438.292 242.385 433.995 227.135C428.665 208.201 423.892 186.987 409.238 175.745C406.648 173.751 403.153 172.145 400.471 173.997C398.509 175.292 397.742 178.025 397.173 180.473C392.134 202.489 366.657 219.792 359.446 241.07C352.584 261.261 340.205 278.628 333.435 298.897C317.922 345.262 358.866 402.427 361.304 451.849C362.396 473.671 360.77 495.545 359.144 517.316C358.877 520.8 358.378 524.737 355.788 526.692C354.091 527.72 352.162 528.17 350.238 527.988C341.537 528.046 332.891 526.434 324.68 523.222C321.371 521.927 318.05 520.346 314.543 520.282C309.364 520.191 304.65 523.364 299.68 525.022C282.924 530.643 265.483 518.611 253.313 504.598C241.144 490.585 230.833 473.606 215.18 464.942C210.059 462.093 203.359 457.974 204.729 451.771C205.385 449.659 206.536 447.781 208.062 446.331C214.402 439.221 221.067 432.344 226.258 424.159C234.084 411.791 238.16 397.04 242.131 382.56C247.867 361.606 253.662 340.133 252.582 318.259C252.071 307.419 249.865 296.76 249.017 285.881C247.345 264.331 251.13 242.78 254.893 221.566C257.447 207.113 260.222 192.129 268.2 180.382C273.623 172.404 281.077 166.485 287.162 159.116C296.243 148.121 301.932 134.263 309.294 121.766C316.656 109.268 326.643 97.4306 339.741 94.2576C347.672 92.3279 355.928 93.8043 363.94 95.2937C370.338 96.4981 376.887 97.7414 382.937 100.474C387.71 102.598 392.099 107.843 396.987 108.84C406.718 110.874 417.413 106.613 427.829 109.358C448.091 114.681 466.577 129.834 475.565 151.009C477.324 155.2 478.806 159.529 480.001 163.96C481.719 170.177 483.032 176.535 484.332 182.882C484.611 184.177 484.878 185.575 485.133 186.909C493.087 229.078 487.955 259.785 484.483 303.65C481.011 347.515 480.163 406.287 491.102 448.701C495.665 466.418 504.688 484.874 498.835 502.06Z" fill="#121111"/>
<path opacity="0.05" d="M374.797 578.302C374.797 578.302 383.402 593.844 383.402 604.684C383.402 604.684 389.858 578.302 395.234 578.302" fill="black"/>
<path d="M354.36 581.89V661.046C354.377 673.976 350.473 686.533 343.282 696.675C342.054 698.405 340.74 700.056 339.346 701.622C334.55 706.995 328.85 711.258 322.573 714.166C316.296 717.075 309.566 718.573 302.769 718.573C295.971 718.573 289.241 717.075 282.964 714.166C276.687 711.258 270.987 706.995 266.191 701.622C264.797 700.056 263.483 698.404 262.255 696.675C255.064 686.533 251.16 673.976 251.177 661.046V581.89C251.152 568.439 255.374 555.409 263.102 545.083C264.474 543.25 265.952 541.52 267.526 539.903C277.085 529.908 289.695 524.345 302.798 524.345C315.9 524.345 328.511 529.908 338.069 539.903C338.487 540.317 338.893 540.77 339.3 541.198C340.461 542.493 341.471 543.788 342.493 545.083C350.2 555.418 354.401 568.448 354.36 581.89Z" fill="#DFE6F5"/>
<path opacity="0.1" d="M354.36 581.89V661.046C354.377 673.976 350.473 686.533 343.282 696.675C342.054 698.405 340.74 700.056 339.346 701.622C334.55 706.995 328.85 711.258 322.573 714.166C316.296 717.075 309.566 718.573 302.769 718.573C295.971 718.573 289.241 717.075 282.964 714.166C276.687 711.258 270.987 706.995 266.191 701.622C264.797 700.056 263.483 698.404 262.255 696.675C255.064 686.533 251.16 673.976 251.177 661.046V581.89C251.152 568.439 255.374 555.409 263.102 545.083C264.474 543.25 265.952 541.52 267.526 539.903C277.085 529.908 289.695 524.345 302.798 524.345C315.9 524.345 328.511 529.908 338.069 539.903C338.487 540.317 338.893 540.77 339.3 541.198C340.461 542.493 341.471 543.788 342.493 545.083C350.2 555.418 354.401 568.448 354.36 581.89Z" fill="black"/>
<path d="M356.52 581.89V661.046C356.537 673.976 352.633 686.533 345.442 696.675C344.214 698.405 342.9 700.056 341.506 701.622C336.71 706.995 331.01 711.258 324.733 714.166C318.456 717.075 311.726 718.573 304.929 718.573C298.131 718.573 291.401 717.075 285.124 714.166C278.847 711.258 273.147 706.995 268.351 701.622C266.957 700.056 265.643 698.404 264.415 696.675C257.199 686.543 253.27 673.986 253.267 661.046V581.89C253.243 568.439 257.465 555.409 265.193 545.083C266.564 543.25 268.042 541.52 269.617 539.903C279.175 529.908 291.786 524.345 304.888 524.345C317.99 524.345 330.601 529.908 340.159 539.903C340.577 540.317 340.983 540.77 341.39 541.198C342.551 542.493 343.561 543.788 344.583 545.083C352.315 555.407 356.541 568.438 356.52 581.89Z" fill="#DFE6F5"/>
<path opacity="0.1" d="M282.308 545.912C284.091 545.912 285.537 544.3 285.537 542.311C285.537 540.323 284.091 538.711 282.308 538.711C280.526 538.711 279.08 540.323 279.08 542.311C279.08 544.3 280.526 545.912 282.308 545.912Z" fill="black"/>
<path opacity="0.1" d="M282.308 557.905C284.091 557.905 285.537 556.293 285.537 554.304C285.537 552.316 284.091 550.704 282.308 550.704C280.526 550.704 279.08 552.316 279.08 554.304C279.08 556.293 280.526 557.905 282.308 557.905Z" fill="black"/>
<path opacity="0.1" d="M282.308 569.897C284.091 569.897 285.537 568.285 285.537 566.297C285.537 564.308 284.091 562.696 282.308 562.696C280.526 562.696 279.08 564.308 279.08 566.297C279.08 568.285 280.526 569.897 282.308 569.897Z" fill="black"/>
<path opacity="0.1" d="M282.308 581.89C284.091 581.89 285.537 580.278 285.537 578.289C285.537 576.301 284.091 574.689 282.308 574.689C280.526 574.689 279.08 576.301 279.08 578.289C279.08 580.278 280.526 581.89 282.308 581.89Z" fill="black"/>
<path opacity="0.1" d="M282.308 593.883C284.091 593.883 285.537 592.271 285.537 590.282C285.537 588.294 284.091 586.682 282.308 586.682C280.526 586.682 279.08 588.294 279.08 590.282C279.08 592.271 280.526 593.883 282.308 593.883Z" fill="black"/>
<path opacity="0.1" d="M282.308 605.875C284.091 605.875 285.537 604.263 285.537 602.275C285.537 600.286 284.091 598.674 282.308 598.674C280.526 598.674 279.08 600.286 279.08 602.275C279.08 604.263 280.526 605.875 282.308 605.875Z" fill="black"/>
<path opacity="0.1" d="M282.308 617.868C284.091 617.868 285.537 616.256 285.537 614.267C285.537 612.279 284.091 610.667 282.308 610.667C280.526 610.667 279.08 612.279 279.08 614.267C279.08 616.256 280.526 617.868 282.308 617.868Z" fill="black"/>
<path opacity="0.1" d="M282.308 629.873C284.091 629.873 285.537 628.261 285.537 626.273C285.537 624.285 284.091 622.673 282.308 622.673C280.526 622.673 279.08 624.285 279.08 626.273C279.08 628.261 280.526 629.873 282.308 629.873Z" fill="black"/>
<path opacity="0.1" d="M282.308 641.866C284.091 641.866 285.537 640.254 285.537 638.266C285.537 636.277 284.091 634.665 282.308 634.665C280.526 634.665 279.08 636.277 279.08 638.266C279.08 640.254 280.526 641.866 282.308 641.866Z" fill="black"/>
<path opacity="0.1" d="M282.308 653.859C284.091 653.859 285.537 652.247 285.537 650.258C285.537 648.27 284.091 646.658 282.308 646.658C280.526 646.658 279.08 648.27 279.08 650.258C279.08 652.247 280.526 653.859 282.308 653.859Z" fill="black"/>
<path opacity="0.1" d="M282.308 665.851C284.091 665.851 285.537 664.239 285.537 662.251C285.537 660.263 284.091 658.651 282.308 658.651C280.526 658.651 279.08 660.263 279.08 662.251C279.08 664.239 280.526 665.851 282.308 665.851Z" fill="black"/>
<path opacity="0.1" d="M282.308 677.844C284.091 677.844 285.537 676.232 285.537 674.244C285.537 672.255 284.091 670.643 282.308 670.643C280.526 670.643 279.08 672.255 279.08 674.244C279.08 676.232 280.526 677.844 282.308 677.844Z" fill="black"/>
<path opacity="0.1" d="M282.308 689.837C284.091 689.837 285.537 688.225 285.537 686.236C285.537 684.248 284.091 682.636 282.308 682.636C280.526 682.636 279.08 684.248 279.08 686.236C279.08 688.225 280.526 689.837 282.308 689.837Z" fill="black"/>
<path opacity="0.1" d="M282.308 701.829C284.091 701.829 285.537 700.217 285.537 698.229C285.537 696.241 284.091 694.629 282.308 694.629C280.526 694.629 279.08 696.241 279.08 698.229C279.08 700.217 280.526 701.829 282.308 701.829Z" fill="black"/>
<path opacity="0.1" d="M270.487 542.311C270.487 542.994 270.312 543.662 269.984 544.238C269.655 544.814 269.187 545.274 268.633 545.565C268.08 545.855 267.463 545.964 266.856 545.879C266.249 545.794 265.676 545.518 265.204 545.083C266.576 543.25 268.054 541.52 269.628 539.903C270.179 540.555 270.486 541.416 270.487 542.311Z" fill="black"/>
<path opacity="0.1" d="M267.259 557.905C269.042 557.905 270.487 556.293 270.487 554.304C270.487 552.316 269.042 550.704 267.259 550.704C265.477 550.704 264.031 552.316 264.031 554.304C264.031 556.293 265.477 557.905 267.259 557.905Z" fill="black"/>
<path opacity="0.1" d="M267.259 569.897C269.042 569.897 270.487 568.285 270.487 566.297C270.487 564.308 269.042 562.696 267.259 562.696C265.477 562.696 264.031 564.308 264.031 566.297C264.031 568.285 265.477 569.897 267.259 569.897Z" fill="black"/>
<path opacity="0.1" d="M267.259 581.89C269.042 581.89 270.487 580.278 270.487 578.289C270.487 576.301 269.042 574.689 267.259 574.689C265.477 574.689 264.031 576.301 264.031 578.289C264.031 580.278 265.477 581.89 267.259 581.89Z" fill="black"/>
<path opacity="0.1" d="M267.259 593.883C269.042 593.883 270.487 592.271 270.487 590.282C270.487 588.294 269.042 586.682 267.259 586.682C265.477 586.682 264.031 588.294 264.031 590.282C264.031 592.271 265.477 593.883 267.259 593.883Z" fill="black"/>
<path opacity="0.1" d="M267.259 605.875C269.042 605.875 270.487 604.263 270.487 602.275C270.487 600.286 269.042 598.674 267.259 598.674C265.477 598.674 264.031 600.286 264.031 602.275C264.031 604.263 265.477 605.875 267.259 605.875Z" fill="black"/>
<path opacity="0.1" d="M267.259 617.868C269.042 617.868 270.487 616.256 270.487 614.267C270.487 612.279 269.042 610.667 267.259 610.667C265.477 610.667 264.031 612.279 264.031 614.267C264.031 616.256 265.477 617.868 267.259 617.868Z" fill="black"/>
<path opacity="0.1" d="M267.259 629.873C269.042 629.873 270.487 628.261 270.487 626.273C270.487 624.285 269.042 622.673 267.259 622.673C265.477 622.673 264.031 624.285 264.031 626.273C264.031 628.261 265.477 629.873 267.259 629.873Z" fill="black"/>
<path opacity="0.1" d="M267.259 641.866C269.042 641.866 270.487 640.254 270.487 638.266C270.487 636.277 269.042 634.665 267.259 634.665C265.477 634.665 264.031 636.277 264.031 638.266C264.031 640.254 265.477 641.866 267.259 641.866Z" fill="black"/>
<path opacity="0.1" d="M267.259 653.859C269.042 653.859 270.487 652.247 270.487 650.258C270.487 648.27 269.042 646.658 267.259 646.658C265.477 646.658 264.031 648.27 264.031 650.258C264.031 652.247 265.477 653.859 267.259 653.859Z" fill="black"/>
<path opacity="0.1" d="M267.259 665.851C269.042 665.851 270.487 664.239 270.487 662.251C270.487 660.263 269.042 658.651 267.259 658.651C265.477 658.651 264.031 660.263 264.031 662.251C264.031 664.239 265.477 665.851 267.259 665.851Z" fill="black"/>
<path opacity="0.1" d="M267.259 677.844C269.042 677.844 270.487 676.232 270.487 674.244C270.487 672.255 269.042 670.643 267.259 670.643C265.477 670.643 264.031 672.255 264.031 674.244C264.031 676.232 265.477 677.844 267.259 677.844Z" fill="black"/>
<path opacity="0.1" d="M267.259 689.837C269.042 689.837 270.487 688.225 270.487 686.236C270.487 684.248 269.042 682.636 267.259 682.636C265.477 682.636 264.031 684.248 264.031 686.236C264.031 688.225 265.477 689.837 267.259 689.837Z" fill="black"/>
<path opacity="0.1" d="M270.488 698.229C270.488 698.982 270.277 699.716 269.883 700.327C269.489 700.938 268.933 701.396 268.293 701.635C266.899 700.069 265.585 698.417 264.356 696.688C264.667 695.946 265.195 695.345 265.854 694.984C266.513 694.624 267.262 694.525 267.978 694.705C268.694 694.885 269.333 695.333 269.79 695.974C270.246 696.615 270.492 697.41 270.488 698.229Z" fill="black"/>
<path opacity="0.1" d="M297.369 545.912C299.152 545.912 300.597 544.3 300.597 542.311C300.597 540.323 299.152 538.711 297.369 538.711C295.586 538.711 294.141 540.323 294.141 542.311C294.141 544.3 295.586 545.912 297.369 545.912Z" fill="black"/>
<path opacity="0.1" d="M297.369 557.905C299.152 557.905 300.597 556.293 300.597 554.304C300.597 552.316 299.152 550.704 297.369 550.704C295.586 550.704 294.141 552.316 294.141 554.304C294.141 556.293 295.586 557.905 297.369 557.905Z" fill="black"/>
<path opacity="0.1" d="M297.369 569.897C299.152 569.897 300.597 568.285 300.597 566.297C300.597 564.308 299.152 562.696 297.369 562.696C295.586 562.696 294.141 564.308 294.141 566.297C294.141 568.285 295.586 569.897 297.369 569.897Z" fill="black"/>
<path opacity="0.1" d="M297.369 581.89C299.152 581.89 300.597 580.278 300.597 578.289C300.597 576.301 299.152 574.689 297.369 574.689C295.586 574.689 294.141 576.301 294.141 578.289C294.141 580.278 295.586 581.89 297.369 581.89Z" fill="black"/>
<path opacity="0.1" d="M297.369 593.883C299.152 593.883 300.597 592.271 300.597 590.282C300.597 588.294 299.152 586.682 297.369 586.682C295.586 586.682 294.141 588.294 294.141 590.282C294.141 592.271 295.586 593.883 297.369 593.883Z" fill="black"/>
<path opacity="0.1" d="M297.369 605.875C299.152 605.875 300.597 604.263 300.597 602.275C300.597 600.286 299.152 598.674 297.369 598.674C295.586 598.674 294.141 600.286 294.141 602.275C294.141 604.263 295.586 605.875 297.369 605.875Z" fill="black"/>
<path opacity="0.1" d="M297.369 617.868C299.152 617.868 300.597 616.256 300.597 614.267C300.597 612.279 299.152 610.667 297.369 610.667C295.586 610.667 294.141 612.279 294.141 614.267C294.141 616.256 295.586 617.868 297.369 617.868Z" fill="black"/>
<path opacity="0.1" d="M297.369 629.873C299.152 629.873 300.597 628.261 300.597 626.273C300.597 624.285 299.152 622.673 297.369 622.673C295.586 622.673 294.141 624.285 294.141 626.273C294.141 628.261 295.586 629.873 297.369 629.873Z" fill="black"/>
<path opacity="0.1" d="M297.369 641.866C299.152 641.866 300.597 640.254 300.597 638.266C300.597 636.277 299.152 634.665 297.369 634.665C295.586 634.665 294.141 636.277 294.141 638.266C294.141 640.254 295.586 641.866 297.369 641.866Z" fill="black"/>
<path opacity="0.1" d="M297.369 653.859C299.152 653.859 300.597 652.247 300.597 650.258C300.597 648.27 299.152 646.658 297.369 646.658C295.586 646.658 294.141 648.27 294.141 650.258C294.141 652.247 295.586 653.859 297.369 653.859Z" fill="black"/>
<path opacity="0.1" d="M297.369 665.851C299.152 665.851 300.597 664.239 300.597 662.251C300.597 660.263 299.152 658.651 297.369 658.651C295.586 658.651 294.141 660.263 294.141 662.251C294.141 664.239 295.586 665.851 297.369 665.851Z" fill="black"/>
<path opacity="0.1" d="M297.369 677.844C299.152 677.844 300.597 676.232 300.597 674.244C300.597 672.255 299.152 670.643 297.369 670.643C295.586 670.643 294.141 672.255 294.141 674.244C294.141 676.232 295.586 677.844 297.369 677.844Z" fill="black"/>
<path opacity="0.1" d="M297.369 689.837C299.152 689.837 300.597 688.225 300.597 686.236C300.597 684.248 299.152 682.636 297.369 682.636C295.586 682.636 294.141 684.248 294.141 686.236C294.141 688.225 295.586 689.837 297.369 689.837Z" fill="black"/>
<path opacity="0.1" d="M297.369 701.829C299.152 701.829 300.597 700.217 300.597 698.229C300.597 696.241 299.152 694.629 297.369 694.629C295.586 694.629 294.141 696.241 294.141 698.229C294.141 700.217 295.586 701.829 297.369 701.829Z" fill="black"/>
<path opacity="0.1" d="M312.418 545.912C314.201 545.912 315.646 544.3 315.646 542.311C315.646 540.323 314.201 538.711 312.418 538.711C310.635 538.711 309.19 540.323 309.19 542.311C309.19 544.3 310.635 545.912 312.418 545.912Z" fill="black"/>
<path opacity="0.1" d="M312.418 557.905C314.201 557.905 315.646 556.293 315.646 554.304C315.646 552.316 314.201 550.704 312.418 550.704C310.635 550.704 309.19 552.316 309.19 554.304C309.19 556.293 310.635 557.905 312.418 557.905Z" fill="black"/>
<path opacity="0.1" d="M312.418 569.897C314.201 569.897 315.646 568.285 315.646 566.297C315.646 564.308 314.201 562.696 312.418 562.696C310.635 562.696 309.19 564.308 309.19 566.297C309.19 568.285 310.635 569.897 312.418 569.897Z" fill="black"/>
<path opacity="0.1" d="M312.418 581.89C314.201 581.89 315.646 580.278 315.646 578.289C315.646 576.301 314.201 574.689 312.418 574.689C310.635 574.689 309.19 576.301 309.19 578.289C309.19 580.278 310.635 581.89 312.418 581.89Z" fill="black"/>
<path opacity="0.1" d="M312.418 593.883C314.201 593.883 315.646 592.271 315.646 590.282C315.646 588.294 314.201 586.682 312.418 586.682C310.635 586.682 309.19 588.294 309.19 590.282C309.19 592.271 310.635 593.883 312.418 593.883Z" fill="black"/>
<path opacity="0.1" d="M312.418 605.875C314.201 605.875 315.646 604.263 315.646 602.275C315.646 600.286 314.201 598.674 312.418 598.674C310.635 598.674 309.19 600.286 309.19 602.275C309.19 604.263 310.635 605.875 312.418 605.875Z" fill="black"/>
<path opacity="0.1" d="M312.418 617.868C314.201 617.868 315.646 616.256 315.646 614.267C315.646 612.279 314.201 610.667 312.418 610.667C310.635 610.667 309.19 612.279 309.19 614.267C309.19 616.256 310.635 617.868 312.418 617.868Z" fill="black"/>
<path opacity="0.1" d="M312.418 629.873C314.201 629.873 315.646 628.261 315.646 626.273C315.646 624.285 314.201 622.673 312.418 622.673C310.635 622.673 309.19 624.285 309.19 626.273C309.19 628.261 310.635 629.873 312.418 629.873Z" fill="black"/>
<path opacity="0.1" d="M312.418 641.866C314.201 641.866 315.646 640.254 315.646 638.266C315.646 636.277 314.201 634.665 312.418 634.665C310.635 634.665 309.19 636.277 309.19 638.266C309.19 640.254 310.635 641.866 312.418 641.866Z" fill="black"/>
<path opacity="0.1" d="M312.418 653.859C314.201 653.859 315.646 652.247 315.646 650.258C315.646 648.27 314.201 646.658 312.418 646.658C310.635 646.658 309.19 648.27 309.19 650.258C309.19 652.247 310.635 653.859 312.418 653.859Z" fill="black"/>
<path opacity="0.1" d="M312.418 665.851C314.201 665.851 315.646 664.239 315.646 662.251C315.646 660.263 314.201 658.651 312.418 658.651C310.635 658.651 309.19 660.263 309.19 662.251C309.19 664.239 310.635 665.851 312.418 665.851Z" fill="black"/>
<path opacity="0.1" d="M312.418 677.844C314.201 677.844 315.646 676.232 315.646 674.244C315.646 672.255 314.201 670.643 312.418 670.643C310.635 670.643 309.19 672.255 309.19 674.244C309.19 676.232 310.635 677.844 312.418 677.844Z" fill="black"/>
<path opacity="0.1" d="M312.418 689.837C314.201 689.837 315.646 688.225 315.646 686.236C315.646 684.248 314.201 682.636 312.418 682.636C310.635 682.636 309.19 684.248 309.19 686.236C309.19 688.225 310.635 689.837 312.418 689.837Z" fill="black"/>
<path opacity="0.1" d="M312.418 701.829C314.201 701.829 315.646 700.217 315.646 698.229C315.646 696.241 314.201 694.629 312.418 694.629C310.635 694.629 309.19 696.241 309.19 698.229C309.19 700.217 310.635 701.829 312.418 701.829Z" fill="black"/>
<path opacity="0.1" d="M327.479 545.912C329.261 545.912 330.707 544.3 330.707 542.311C330.707 540.323 329.261 538.711 327.479 538.711C325.696 538.711 324.25 540.323 324.25 542.311C324.25 544.3 325.696 545.912 327.479 545.912Z" fill="black"/>
<path opacity="0.1" d="M327.479 557.905C329.261 557.905 330.707 556.293 330.707 554.304C330.707 552.316 329.261 550.704 327.479 550.704C325.696 550.704 324.25 552.316 324.25 554.304C324.25 556.293 325.696 557.905 327.479 557.905Z" fill="black"/>
<path opacity="0.1" d="M327.479 569.897C329.261 569.897 330.707 568.285 330.707 566.297C330.707 564.308 329.261 562.696 327.479 562.696C325.696 562.696 324.25 564.308 324.25 566.297C324.25 568.285 325.696 569.897 327.479 569.897Z" fill="black"/>
<path opacity="0.1" d="M327.479 581.89C329.261 581.89 330.707 580.278 330.707 578.289C330.707 576.301 329.261 574.689 327.479 574.689C325.696 574.689 324.25 576.301 324.25 578.289C324.25 580.278 325.696 581.89 327.479 581.89Z" fill="black"/>
<path opacity="0.1" d="M327.479 593.883C329.261 593.883 330.707 592.271 330.707 590.282C330.707 588.294 329.261 586.682 327.479 586.682C325.696 586.682 324.25 588.294 324.25 590.282C324.25 592.271 325.696 593.883 327.479 593.883Z" fill="black"/>
<path opacity="0.1" d="M327.479 605.875C329.261 605.875 330.707 604.263 330.707 602.275C330.707 600.286 329.261 598.674 327.479 598.674C325.696 598.674 324.25 600.286 324.25 602.275C324.25 604.263 325.696 605.875 327.479 605.875Z" fill="black"/>
<path opacity="0.1" d="M327.479 617.868C329.261 617.868 330.707 616.256 330.707 614.267C330.707 612.279 329.261 610.667 327.479 610.667C325.696 610.667 324.25 612.279 324.25 614.267C324.25 616.256 325.696 617.868 327.479 617.868Z" fill="black"/>
<path opacity="0.1" d="M327.479 629.873C329.261 629.873 330.707 628.261 330.707 626.273C330.707 624.285 329.261 622.673 327.479 622.673C325.696 622.673 324.25 624.285 324.25 626.273C324.25 628.261 325.696 629.873 327.479 629.873Z" fill="black"/>
<path opacity="0.1" d="M327.479 641.866C329.261 641.866 330.707 640.254 330.707 638.266C330.707 636.277 329.261 634.665 327.479 634.665C325.696 634.665 324.25 636.277 324.25 638.266C324.25 640.254 325.696 641.866 327.479 641.866Z" fill="black"/>
<path opacity="0.1" d="M327.479 653.859C329.261 653.859 330.707 652.247 330.707 650.258C330.707 648.27 329.261 646.658 327.479 646.658C325.696 646.658 324.25 648.27 324.25 650.258C324.25 652.247 325.696 653.859 327.479 653.859Z" fill="black"/>
<path opacity="0.1" d="M327.479 665.851C329.261 665.851 330.707 664.239 330.707 662.251C330.707 660.263 329.261 658.651 327.479 658.651C325.696 658.651 324.25 660.263 324.25 662.251C324.25 664.239 325.696 665.851 327.479 665.851Z" fill="black"/>
<path opacity="0.1" d="M327.479 677.844C329.261 677.844 330.707 676.232 330.707 674.244C330.707 672.255 329.261 670.643 327.479 670.643C325.696 670.643 324.25 672.255 324.25 674.244C324.25 676.232 325.696 677.844 327.479 677.844Z" fill="black"/>
<path opacity="0.1" d="M327.479 689.837C329.261 689.837 330.707 688.225 330.707 686.236C330.707 684.248 329.261 682.636 327.479 682.636C325.696 682.636 324.25 684.248 324.25 686.236C324.25 688.225 325.696 689.837 327.479 689.837Z" fill="black"/>
<path opacity="0.1" d="M327.479 701.829C329.261 701.829 330.707 700.217 330.707 698.229C330.707 696.241 329.261 694.629 327.479 694.629C325.696 694.629 324.25 696.241 324.25 698.229C324.25 700.217 325.696 701.829 327.479 701.829Z" fill="black"/>
<path opacity="0.1" d="M344.595 545.083C344.123 545.518 343.55 545.794 342.943 545.879C342.336 545.964 341.719 545.855 341.166 545.565C340.612 545.274 340.143 544.814 339.815 544.238C339.487 543.662 339.312 542.994 339.311 542.311C339.307 541.407 339.615 540.535 340.171 539.877C340.589 540.291 340.995 540.744 341.401 541.172C342.516 542.441 343.573 543.736 344.595 545.083Z" fill="black"/>
<path opacity="0.1" d="M342.528 557.905C344.311 557.905 345.756 556.293 345.756 554.304C345.756 552.316 344.311 550.704 342.528 550.704C340.745 550.704 339.3 552.316 339.3 554.304C339.3 556.293 340.745 557.905 342.528 557.905Z" fill="black"/>
<path opacity="0.1" d="M342.528 569.897C344.311 569.897 345.756 568.285 345.756 566.297C345.756 564.308 344.311 562.696 342.528 562.696C340.745 562.696 339.3 564.308 339.3 566.297C339.3 568.285 340.745 569.897 342.528 569.897Z" fill="black"/>
<path opacity="0.1" d="M342.528 581.89C344.311 581.89 345.756 580.278 345.756 578.289C345.756 576.301 344.311 574.689 342.528 574.689C340.745 574.689 339.3 576.301 339.3 578.289C339.3 580.278 340.745 581.89 342.528 581.89Z" fill="black"/>
<path opacity="0.1" d="M342.528 593.883C344.311 593.883 345.756 592.271 345.756 590.282C345.756 588.294 344.311 586.682 342.528 586.682C340.745 586.682 339.3 588.294 339.3 590.282C339.3 592.271 340.745 593.883 342.528 593.883Z" fill="black"/>
<path opacity="0.1" d="M342.528 605.875C344.311 605.875 345.756 604.263 345.756 602.275C345.756 600.286 344.311 598.674 342.528 598.674C340.745 598.674 339.3 600.286 339.3 602.275C339.3 604.263 340.745 605.875 342.528 605.875Z" fill="black"/>
<path opacity="0.1" d="M342.528 617.868C344.311 617.868 345.756 616.256 345.756 614.267C345.756 612.279 344.311 610.667 342.528 610.667C340.745 610.667 339.3 612.279 339.3 614.267C339.3 616.256 340.745 617.868 342.528 617.868Z" fill="black"/>
<path opacity="0.1" d="M342.528 629.873C344.311 629.873 345.756 628.261 345.756 626.273C345.756 624.285 344.311 622.673 342.528 622.673C340.745 622.673 339.3 624.285 339.3 626.273C339.3 628.261 340.745 629.873 342.528 629.873Z" fill="black"/>
<path opacity="0.1" d="M342.528 641.866C344.311 641.866 345.756 640.254 345.756 638.266C345.756 636.277 344.311 634.665 342.528 634.665C340.745 634.665 339.3 636.277 339.3 638.266C339.3 640.254 340.745 641.866 342.528 641.866Z" fill="black"/>
<path opacity="0.1" d="M342.528 653.859C344.311 653.859 345.756 652.247 345.756 650.258C345.756 648.27 344.311 646.658 342.528 646.658C340.745 646.658 339.3 648.27 339.3 650.258C339.3 652.247 340.745 653.859 342.528 653.859Z" fill="black"/>
<path opacity="0.1" d="M342.528 665.851C344.311 665.851 345.756 664.239 345.756 662.251C345.756 660.263 344.311 658.651 342.528 658.651C340.745 658.651 339.3 660.263 339.3 662.251C339.3 664.239 340.745 665.851 342.528 665.851Z" fill="black"/>
<path opacity="0.1" d="M342.528 677.844C344.311 677.844 345.756 676.232 345.756 674.244C345.756 672.255 344.311 670.643 342.528 670.643C340.745 670.643 339.3 672.255 339.3 674.244C339.3 676.232 340.745 677.844 342.528 677.844Z" fill="black"/>
<path opacity="0.1" d="M342.528 689.837C344.311 689.837 345.756 688.225 345.756 686.236C345.756 684.248 344.311 682.636 342.528 682.636C340.745 682.636 339.3 684.248 339.3 686.236C339.3 688.225 340.745 689.837 342.528 689.837Z" fill="black"/>
<path opacity="0.1" d="M345.442 696.675C344.214 698.405 342.9 700.056 341.506 701.622C340.998 701.435 340.541 701.11 340.173 700.676C339.806 700.243 339.541 699.715 339.403 699.139C339.264 698.563 339.255 697.958 339.378 697.378C339.501 696.797 339.751 696.26 340.105 695.814C340.46 695.368 340.909 695.027 341.411 694.823C341.913 694.618 342.453 694.555 342.982 694.641C343.511 694.726 344.013 694.956 344.442 695.311C344.872 695.667 345.215 696.135 345.442 696.675Z" fill="black"/>
<path d="M304 655.05H301.491C298.028 655.05 295.221 658.181 295.221 662.044V808.766C295.221 812.628 298.028 815.76 301.491 815.76H304C307.463 815.76 310.27 812.628 310.27 808.766V662.044C310.27 658.181 307.463 655.05 304 655.05Z" fill="#54576B"/>
<path d="M346.29 794.17H259.201C254.744 794.17 251.13 798.2 251.13 803.171V806.759C251.13 811.73 254.744 815.76 259.201 815.76H346.29C350.747 815.76 354.36 811.73 354.36 806.759V803.171C354.36 798.2 350.747 794.17 346.29 794.17Z" fill="#54576B"/>
<path opacity="0.1" d="M304 655.05H301.491C298.028 655.05 295.221 658.181 295.221 662.044V808.766C295.221 812.628 298.028 815.76 301.491 815.76H304C307.463 815.76 310.27 812.628 310.27 808.766V662.044C310.27 658.181 307.463 655.05 304 655.05Z" fill="black"/>
<path opacity="0.1" d="M346.29 794.17H259.201C254.744 794.17 251.13 798.2 251.13 803.171V806.759C251.13 811.73 254.744 815.76 259.201 815.76H346.29C350.747 815.76 354.36 811.73 354.36 806.759V803.171C354.36 798.2 350.747 794.17 346.29 794.17Z" fill="black"/>
<path d="M306.148 655.05H303.64C300.176 655.05 297.369 658.181 297.369 662.044V808.766C297.369 812.628 300.176 815.76 303.64 815.76H306.148C309.611 815.76 312.418 812.628 312.418 808.766V662.044C312.418 658.181 309.611 655.05 306.148 655.05Z" fill="#54576B"/>
<path d="M348.438 794.17H261.349C256.892 794.17 253.279 798.2 253.279 803.171V806.759C253.279 811.73 256.892 815.76 261.349 815.76H348.438C352.895 815.76 356.509 811.73 356.509 806.759V803.171C356.509 798.2 352.895 794.17 348.438 794.17Z" fill="#54576B"/>
<path d="M394.537 668.649C386.467 688.233 373.529 704.824 357.259 716.455C340.99 728.086 322.07 734.268 302.745 734.268C283.42 734.268 264.501 728.086 248.231 716.455C231.961 704.824 219.024 688.233 210.953 668.649C200.259 651.54 190.911 617.427 190.911 621.481C190.911 637.861 193.804 654.081 199.424 669.214C205.044 684.347 213.282 698.097 223.667 709.68C234.051 721.262 246.38 730.45 259.948 736.718C273.517 742.986 288.059 746.213 302.745 746.213C317.432 746.213 331.974 742.986 345.542 736.718C359.111 730.45 371.439 721.262 381.824 709.68C392.209 698.097 400.446 684.347 406.067 669.214C411.687 654.081 414.579 637.861 414.579 621.481C414.579 617.427 405.232 651.54 394.537 668.649Z" fill="#54576B"/>
<path d="M302.745 496.737C284.705 496.742 266.935 501.617 250.95 510.944C234.966 520.272 221.243 533.776 210.953 550.302C204.82 565.085 201.65 581.181 201.664 597.47C201.664 601.476 201.854 605.479 202.233 609.463C204.761 581.693 216.441 555.958 235.009 537.244C253.578 518.531 277.713 508.17 302.74 508.17C327.766 508.17 351.902 518.531 370.47 537.244C389.039 555.958 400.718 581.693 403.246 609.463C403.626 605.479 403.816 601.476 403.815 597.47C403.829 581.181 400.659 565.085 394.526 550.302C384.237 533.777 370.516 520.275 354.534 510.947C338.552 501.62 320.783 496.744 302.745 496.737Z" fill="#54576B"/>
<path opacity="0.1" d="M304.894 675.435C307.266 675.435 309.19 673.29 309.19 670.643C309.19 667.997 307.266 665.851 304.894 665.851C302.521 665.851 300.597 667.997 300.597 670.643C300.597 673.29 302.521 675.435 304.894 675.435Z" fill="black"/>
<path opacity="0.2" d="M506.511 789.378C507.402 789.378 508.125 788.572 508.125 787.578C508.125 786.584 507.402 785.778 506.511 785.778C505.62 785.778 504.897 786.584 504.897 787.578C504.897 788.572 505.62 789.378 506.511 789.378Z" fill="black"/>
<path d="M445.618 823.789C439.199 823.834 432.852 822.281 427.039 819.243C405.371 807.872 394.688 809.31 378.524 811.473C363.376 813.801 348.056 814.422 332.797 813.325C328.541 813.104 324.384 811.827 320.627 809.587C316.871 807.346 313.61 804.199 311.083 800.374C287.116 765.665 303.152 674.282 303.848 670.41C303.92 670.116 304.089 669.864 304.322 669.703C304.554 669.543 304.832 669.487 305.1 669.546C305.368 669.605 305.605 669.775 305.765 670.022C305.925 670.269 305.995 670.574 305.962 670.876C305.799 671.809 289.415 765.056 312.79 798.897C315.131 802.454 318.154 805.382 321.64 807.468C325.125 809.554 328.985 810.745 332.936 810.955C348.049 812.036 363.221 811.415 378.223 809.103C394.758 806.875 405.685 805.399 427.91 817.068C463.361 835.678 504.908 788.342 505.315 787.863C505.519 787.666 505.782 787.562 506.052 787.57C506.322 787.579 506.579 787.7 506.773 787.91C506.967 788.119 507.083 788.402 507.099 788.703C507.115 789.004 507.029 789.3 506.859 789.534C506.546 789.948 476.831 823.789 445.618 823.789Z" fill="#DFE6F5"/>
<path d="M485.122 186.896C467.367 151.216 431.324 126.752 389.904 126.752C330.916 126.752 282.912 176.251 282.912 237.095H275.33C275.33 171.627 326.712 118.359 389.846 118.359C426.4 118.359 459.007 136.206 479.989 163.947C481.708 170.164 483.02 176.523 484.321 182.869C484.611 184.228 484.878 185.562 485.122 186.896Z" fill="#535461"/>
<path d="M291.331 202.036H301.236V278.447H291.331C283.767 278.447 276.513 275.096 271.165 269.131C265.817 263.166 262.812 255.075 262.812 246.639V233.922C262.803 229.738 263.534 225.593 264.963 221.725C266.392 217.857 268.491 214.342 271.14 211.38C273.79 208.418 276.937 206.068 280.401 204.465C283.866 202.861 287.58 202.036 291.331 202.036Z" fill="#DFE6F5"/>
<path d="M302.641 202.101H299.831C295.964 202.101 292.829 205.597 292.829 209.91V270.638C292.829 274.951 295.964 278.447 299.831 278.447H302.641C306.508 278.447 309.643 274.951 309.643 270.638V209.91C309.643 205.597 306.508 202.101 302.641 202.101Z" fill="#535461"/>
<path d="M931.077 751.043C931.077 751.043 912.637 744.076 903.765 762.194C901.425 767.107 900.234 772.598 900.303 778.161C900.372 783.723 901.699 789.176 904.16 794.015C909.966 805.761 921.996 821.018 944.802 819.658C964.101 818.505 970.522 802.083 972.264 786.801C972.932 781.071 972.269 775.246 970.34 769.884C968.412 764.521 965.281 759.801 961.247 756.175C957.214 752.549 952.414 750.138 947.306 749.174C942.198 748.209 936.954 748.724 932.075 750.668L931.077 751.043Z" fill="#FF6363"/>
<path opacity="0.1" d="M908.062 795.647C905.6 790.808 904.274 785.355 904.205 779.793C904.136 774.23 905.327 768.738 907.667 763.826C916.539 745.694 934.978 752.675 934.978 752.675L935.919 752.299C942.95 749.462 950.677 749.656 957.587 752.843C953.774 750.311 949.505 748.754 945.087 748.284C940.67 747.814 936.214 748.442 932.041 750.124L931.1 750.499C931.1 750.499 912.66 743.532 903.789 761.65C901.448 766.563 900.257 772.054 900.326 777.617C900.395 783.179 901.722 788.632 904.184 793.471C908.027 801.241 914.541 810.45 925.085 815.488C917.89 810.736 912.002 803.873 908.062 795.647Z" fill="white"/>
<path opacity="0.2" d="M921.555 759.759C921.555 759.759 928.394 765.756 944.988 759.759H921.555Z" fill="black"/>
<path d="M920.092 716.192C920.092 716.192 931.808 751.587 930.833 760.847L940.122 759.759C940.122 759.759 924.435 728.716 928.394 716.192H920.092Z" fill="#6FFF63"/>
<path opacity="0.2" d="M920.092 716.192C920.092 716.192 931.808 751.587 930.833 760.847L940.122 759.759C940.122 759.759 924.435 728.716 928.394 716.192H920.092Z" fill="black"/>
<path d="M967.921 719.145C967.921 719.145 949.482 708.629 941.214 717.319C932.946 726.009 931.692 748.22 931.692 748.22C931.692 748.22 961.779 752.843 967.921 719.145Z" fill="#C4FF63"/>
<path opacity="0.1" d="M967.921 719.145C967.921 719.145 949.482 708.629 941.214 717.319C932.946 726.009 931.692 748.22 931.692 748.22C931.692 748.22 961.779 752.843 967.921 719.145Z" fill="white"/>
<path d="M931.704 748.22C931.704 748.22 936.546 722.434 967.921 719.145" stroke="#6FFF63" stroke-miterlimit="10"/>
<g filter="url(#filter1_d)">
<path d="M716.64 892H685.6V837.28H690.48V887.44H716.64V892ZM725.354 851.6C726.368 852.347 727.168 853.2 727.754 854.16C728.394 855.067 728.901 856.053 729.274 857.12C729.648 858.187 729.888 859.28 729.994 860.4C730.154 861.52 730.234 862.64 730.234 863.76V892H725.834V863.76C725.834 861.627 725.568 859.787 725.034 858.24C724.501 856.693 723.701 855.36 722.634 854.24L725.354 851.6ZM723.674 839.04C723.674 837.973 724.021 837.093 724.714 836.4C725.461 835.653 726.341 835.28 727.354 835.28C728.421 835.28 729.301 835.653 729.994 836.4C730.741 837.093 731.114 837.973 731.114 839.04C731.114 840.053 730.741 840.933 729.994 841.68C729.301 842.373 728.421 842.72 727.354 842.72C726.341 842.72 725.461 842.373 724.714 841.68C724.021 840.933 723.674 840.053 723.674 839.04ZM772.261 892C771.407 890.4 770.847 888.613 770.581 886.64C770.314 884.613 770.181 882.827 770.181 881.28C770.181 880 770.207 878.8 770.261 877.68C770.314 876.56 770.367 875.387 770.421 874.16C770.527 872.88 770.607 871.52 770.661 870.08C770.767 868.64 770.821 866.987 770.821 865.12C770.821 861.813 770.074 859.387 768.581 857.84C767.087 856.293 764.821 855.52 761.781 855.52C758.901 855.52 756.474 856.24 754.501 857.68C752.527 859.067 750.607 861.04 748.741 863.6V863.76V892H744.341V863.76C744.341 861.627 744.074 859.787 743.541 858.24C743.007 856.693 742.207 855.36 741.141 854.24L743.861 851.6C745.141 852.507 746.127 853.627 746.821 854.96C747.514 856.24 747.994 857.573 748.261 858.96C750.021 856.4 752.021 854.507 754.261 853.28C756.554 852 759.061 851.36 761.781 851.36C766.474 851.36 769.887 852.48 772.021 854.72C774.154 856.96 775.221 860.133 775.221 864.24C775.221 866.16 775.167 867.92 775.061 869.52C775.007 871.067 774.927 872.533 774.821 873.92C774.767 875.307 774.714 876.64 774.661 877.92C774.607 879.2 774.581 880.48 774.581 881.76C774.581 883.52 774.714 885.2 774.981 886.8C775.247 888.4 775.754 890.133 776.501 892H772.261ZM814.891 892L810.571 882.4C809.717 880.533 808.677 879.04 807.451 877.92C806.224 876.747 804.491 876.107 802.251 876H802.171H801.531H792.091V892H787.691V833.92H792.091V859.28C793.317 856.88 794.944 854.96 796.971 853.52C799.051 852.08 801.611 851.36 804.651 851.36C806.624 851.36 808.437 851.653 810.091 852.24C811.797 852.773 813.264 853.573 814.491 854.64C815.717 855.653 816.677 856.933 817.371 858.48C818.064 859.973 818.411 861.653 818.411 863.52C818.411 866.72 817.611 869.227 816.011 871.04C814.411 872.8 812.357 874.08 809.851 874.88C810.917 875.573 811.824 876.4 812.571 877.36C813.317 878.267 813.957 879.253 814.491 880.32L819.851 892H814.891ZM804.651 855.28C802.731 855.28 800.997 855.76 799.451 856.72C797.904 857.68 796.597 858.933 795.531 860.48C794.464 862.027 793.637 863.787 793.051 865.76C792.517 867.733 792.251 869.76 792.251 871.84H801.531C804.251 871.84 806.411 871.6 808.011 871.12C809.664 870.587 810.917 869.92 811.771 869.12C812.624 868.32 813.184 867.44 813.451 866.48C813.717 865.467 813.851 864.48 813.851 863.52C813.851 861.013 813.051 859.013 811.451 857.52C809.851 856.027 807.584 855.28 804.651 855.28Z" fill="#540767"/>
</g>
<g filter="url(#filter2_d)">
<path d="M716.64 892H685.6V837.28H690.48V887.44H716.64V892ZM725.354 851.6C726.368 852.347 727.168 853.2 727.754 854.16C728.394 855.067 728.901 856.053 729.274 857.12C729.648 858.187 729.888 859.28 729.994 860.4C730.154 861.52 730.234 862.64 730.234 863.76V892H725.834V863.76C725.834 861.627 725.568 859.787 725.034 858.24C724.501 856.693 723.701 855.36 722.634 854.24L725.354 851.6ZM723.674 839.04C723.674 837.973 724.021 837.093 724.714 836.4C725.461 835.653 726.341 835.28 727.354 835.28C728.421 835.28 729.301 835.653 729.994 836.4C730.741 837.093 731.114 837.973 731.114 839.04C731.114 840.053 730.741 840.933 729.994 841.68C729.301 842.373 728.421 842.72 727.354 842.72C726.341 842.72 725.461 842.373 724.714 841.68C724.021 840.933 723.674 840.053 723.674 839.04ZM772.261 892C771.407 890.4 770.847 888.613 770.581 886.64C770.314 884.613 770.181 882.827 770.181 881.28C770.181 880 770.207 878.8 770.261 877.68C770.314 876.56 770.367 875.387 770.421 874.16C770.527 872.88 770.607 871.52 770.661 870.08C770.767 868.64 770.821 866.987 770.821 865.12C770.821 861.813 770.074 859.387 768.581 857.84C767.087 856.293 764.821 855.52 761.781 855.52C758.901 855.52 756.474 856.24 754.501 857.68C752.527 859.067 750.607 861.04 748.741 863.6V863.76V892H744.341V863.76C744.341 861.627 744.074 859.787 743.541 858.24C743.007 856.693 742.207 855.36 741.141 854.24L743.861 851.6C745.141 852.507 746.127 853.627 746.821 854.96C747.514 856.24 747.994 857.573 748.261 858.96C750.021 856.4 752.021 854.507 754.261 853.28C756.554 852 759.061 851.36 761.781 851.36C766.474 851.36 769.887 852.48 772.021 854.72C774.154 856.96 775.221 860.133 775.221 864.24C775.221 866.16 775.167 867.92 775.061 869.52C775.007 871.067 774.927 872.533 774.821 873.92C774.767 875.307 774.714 876.64 774.661 877.92C774.607 879.2 774.581 880.48 774.581 881.76C774.581 883.52 774.714 885.2 774.981 886.8C775.247 888.4 775.754 890.133 776.501 892H772.261ZM814.891 892L810.571 882.4C809.717 880.533 808.677 879.04 807.451 877.92C806.224 876.747 804.491 876.107 802.251 876H802.171H801.531H792.091V892H787.691V833.92H792.091V859.28C793.317 856.88 794.944 854.96 796.971 853.52C799.051 852.08 801.611 851.36 804.651 851.36C806.624 851.36 808.437 851.653 810.091 852.24C811.797 852.773 813.264 853.573 814.491 854.64C815.717 855.653 816.677 856.933 817.371 858.48C818.064 859.973 818.411 861.653 818.411 863.52C818.411 866.72 817.611 869.227 816.011 871.04C814.411 872.8 812.357 874.08 809.851 874.88C810.917 875.573 811.824 876.4 812.571 877.36C813.317 878.267 813.957 879.253 814.491 880.32L819.851 892H814.891ZM804.651 855.28C802.731 855.28 800.997 855.76 799.451 856.72C797.904 857.68 796.597 858.933 795.531 860.48C794.464 862.027 793.637 863.787 793.051 865.76C792.517 867.733 792.251 869.76 792.251 871.84H801.531C804.251 871.84 806.411 871.6 808.011 871.12C809.664 870.587 810.917 869.92 811.771 869.12C812.624 868.32 813.184 867.44 813.451 866.48C813.717 865.467 813.851 864.48 813.851 863.52C813.851 861.013 813.051 859.013 811.451 857.52C809.851 856.027 807.584 855.28 804.651 855.28Z" fill="#540767"/>
</g>
<path d="M837.6 972.96C836.56 973.2 835.48 973.36 834.36 973.44C833.24 973.6 832.24 973.68 831.36 973.68C828.8 973.68 826.56 973.2 824.64 972.24C822.72 971.36 821.04 970.16 819.6 968.64C818.24 967.12 817.08 965.4 816.12 963.48C815.24 961.56 814.56 959.56 814.08 957.48L796.8 890.4L803.88 888.6L821.16 955.68C822.04 959.28 823.32 962.08 825 964.08C826.68 966 829.16 967.08 832.44 967.32L847.56 933.48V903.6H854.88V933.48L865.2 957.84C866.56 961.12 868.08 963.48 869.76 964.92C871.52 966.28 873.64 967.08 876.12 967.32L897.6 888.48L904.44 890.52L882.12 972.96C881.08 973.2 880 973.36 878.88 973.44C877.76 973.6 876.76 973.68 875.88 973.68C873.48 973.68 871.32 973.28 869.4 972.48C867.56 971.76 865.92 970.8 864.48 969.6C863.04 968.32 861.8 966.84 860.76 965.16C859.72 963.4 858.84 961.56 858.12 959.64L851.28 942.36L837.6 972.96ZM942.724 973.2C938.244 973.2 934.164 972.44 930.484 970.92C926.804 969.4 923.644 967.28 921.004 964.56C918.444 961.76 916.444 958.48 915.004 954.72C913.564 950.96 912.844 946.84 912.844 942.36C912.844 937.88 913.564 933.76 915.004 930C916.444 926.16 918.444 922.84 921.004 920.04C923.644 917.24 926.804 915.04 930.484 913.44C934.164 911.84 938.244 911.04 942.724 911.04C947.204 911.04 951.244 911.84 954.844 913.44C958.524 914.96 961.644 917.12 964.204 919.92C966.844 922.64 968.884 925.92 970.324 929.76C971.764 933.52 972.484 937.6 972.484 942C972.484 946.48 971.764 950.64 970.324 954.48C968.884 958.32 966.844 961.64 964.204 964.44C961.644 967.16 958.524 969.32 954.844 970.92C951.244 972.44 947.204 973.2 942.724 973.2ZM942.724 917.28C939.204 917.28 936.044 917.88 933.244 919.08C930.444 920.28 928.004 921.96 925.924 924.12C923.924 926.28 922.364 928.88 921.244 931.92C920.204 934.96 919.684 938.32 919.684 942C919.684 945.76 920.204 949.2 921.244 952.32C922.364 955.36 923.924 957.96 925.924 960.12C928.004 962.28 930.444 963.96 933.244 965.16C936.044 966.36 939.204 966.96 942.724 966.96C946.164 966.96 949.284 966.36 952.084 965.16C954.964 963.88 957.404 962.16 959.404 960C961.404 957.76 962.924 955.12 963.964 952.08C965.084 948.96 965.644 945.52 965.644 941.76C965.644 938.08 965.084 934.76 963.964 931.8C962.924 928.76 961.404 926.16 959.404 924C957.404 921.84 954.964 920.2 952.084 919.08C949.284 917.88 946.164 917.28 942.724 917.28ZM1025.25 972V931.68C1025.25 926.64 1024.17 923 1022.01 920.76C1019.93 918.44 1016.93 917.28 1013.01 917.28C1011.41 917.28 1009.77 917.56 1008.09 918.12C1006.41 918.6 1004.77 919.36 1003.17 920.4C1001.65 921.44 1000.25 922.68 998.965 924.12C997.685 925.56 996.645 927.2 995.845 929.04V929.64V972H989.245V929.64C989.245 926.44 988.845 923.68 988.045 921.36C987.245 919.04 986.045 917.04 984.445 915.36L988.525 911.4C990.365 912.76 991.765 914.36 992.725 916.2C993.765 917.96 994.525 919.88 995.005 921.96C997.165 918.28 999.845 915.56 1003.05 913.8C1006.33 911.96 1009.89 911.04 1013.73 911.04C1017.65 911.04 1021.09 911.96 1024.05 913.8C1027.01 915.64 1029.17 918.44 1030.53 922.2C1032.85 918.36 1035.69 915.56 1039.05 913.8C1042.41 911.96 1045.73 911.04 1049.01 911.04C1054.77 911.04 1059.37 912.72 1062.81 916.08C1066.33 919.44 1068.09 924.2 1068.09 930.36C1068.09 933.24 1068.01 935.88 1067.85 938.28C1067.77 940.6 1067.65 942.8 1067.49 944.88C1067.41 946.96 1067.29 948.96 1067.13 950.88C1067.05 952.8 1067.01 954.72 1067.01 956.64C1067.01 959.28 1067.21 961.8 1067.61 964.2C1068.01 966.6 1068.77 969.2 1069.89 972H1063.53C1062.25 969.6 1061.41 966.92 1061.01 963.96C1060.61 960.92 1060.41 958.24 1060.41 955.92C1060.41 954 1060.45 952.2 1060.53 950.52C1060.61 948.84 1060.69 947.08 1060.77 945.24C1060.93 943.32 1061.05 941.28 1061.13 939.12C1061.29 936.96 1061.37 934.48 1061.37 931.68C1061.37 926.72 1060.33 923.08 1058.25 920.76C1056.25 918.44 1053.21 917.28 1049.13 917.28C1041.77 917.28 1036.01 921.24 1031.85 929.16V930.36V972H1025.25ZM1090.93 948C1091.65 954.24 1093.61 958.96 1096.81 962.16C1100.09 965.36 1104.85 966.96 1111.09 966.96C1114.45 966.96 1117.65 966.4 1120.69 965.28C1123.73 964.16 1126.77 962.8 1129.81 961.2L1132.93 966.24C1130.13 968.16 1126.85 969.8 1123.09 971.16C1119.41 972.52 1115.41 973.2 1111.09 973.2C1102.05 973.2 1095.21 970.56 1090.57 965.28C1086.01 959.92 1083.73 952.28 1083.73 942.36C1083.73 938.2 1084.33 934.24 1085.53 930.48C1086.81 926.72 1088.57 923.4 1090.81 920.52C1093.13 917.64 1095.89 915.36 1099.09 913.68C1102.29 911.92 1105.85 911.04 1109.77 911.04C1112.73 911.04 1115.53 911.48 1118.17 912.36C1120.81 913.16 1123.09 914.36 1125.01 915.96C1127.01 917.48 1128.57 919.4 1129.69 921.72C1130.89 923.96 1131.49 926.48 1131.49 929.28C1131.49 932.8 1130.73 935.76 1129.21 938.16C1127.69 940.56 1125.69 942.48 1123.21 943.92C1120.81 945.36 1118.01 946.4 1114.81 947.04C1111.69 947.68 1108.45 948 1105.09 948H1090.93ZM1109.77 916.92C1106.89 916.92 1104.25 917.64 1101.85 919.08C1099.53 920.52 1097.53 922.4 1095.85 924.72C1094.17 927.04 1092.85 929.68 1091.89 932.64C1091.01 935.6 1090.57 938.64 1090.57 941.76H1105.09C1109.17 941.76 1112.49 941.4 1115.05 940.68C1117.61 939.88 1119.61 938.88 1121.05 937.68C1122.49 936.48 1123.45 935.16 1123.93 933.72C1124.41 932.2 1124.65 930.72 1124.65 929.28C1124.65 925.52 1123.25 922.52 1120.45 920.28C1117.73 918.04 1114.17 916.92 1109.77 916.92ZM1191.56 972C1190.28 969.6 1189.44 966.92 1189.04 963.96C1188.64 960.92 1188.44 958.24 1188.44 955.92C1188.44 954 1188.48 952.2 1188.56 950.52C1188.64 948.84 1188.72 947.08 1188.8 945.24C1188.96 943.32 1189.08 941.28 1189.16 939.12C1189.32 936.96 1189.4 934.48 1189.4 931.68C1189.4 926.72 1188.28 923.08 1186.04 920.76C1183.8 918.44 1180.4 917.28 1175.84 917.28C1171.52 917.28 1167.88 918.36 1164.92 920.52C1161.96 922.6 1159.08 925.56 1156.28 929.4V929.64V972H1149.68V929.64C1149.68 926.44 1149.28 923.68 1148.48 921.36C1147.68 919.04 1146.48 917.04 1144.88 915.36L1148.96 911.4C1150.88 912.76 1152.36 914.44 1153.4 916.44C1154.44 918.36 1155.16 920.36 1155.56 922.44C1158.2 918.6 1161.2 915.76 1164.56 913.92C1168 912 1171.76 911.04 1175.84 911.04C1182.88 911.04 1188 912.72 1191.2 916.08C1194.4 919.44 1196 924.2 1196 930.36C1196 933.24 1195.92 935.88 1195.76 938.28C1195.68 940.6 1195.56 942.8 1195.4 944.88C1195.32 946.96 1195.24 948.96 1195.16 950.88C1195.08 952.8 1195.04 954.72 1195.04 956.64C1195.04 959.28 1195.24 961.8 1195.64 964.2C1196.04 966.6 1196.8 969.2 1197.92 972H1191.56Z" fill="#1E9E8F"/>
</g>
<defs>
<filter id="filter0_d" x="-3.99512" y="-0.0234375" width="1206.8" height="1013.02" filterUnits="userSpaceOnUse" color-interpolation-filters="sRGB">
<feFlood flood-opacity="0" result="BackgroundImageFix"/>
<feColorMatrix in="SourceAlpha" type="matrix" values="0 0 0 0 0 0 0 0 0 0 0 0 0 0 0 0 0 0 127 0"/>
<feOffset dy="4"/>
<feGaussianBlur stdDeviation="2"/>
<feColorMatrix type="matrix" values="0 0 0 0 0 0 0 0 0 0 0 0 0 0 0 0 0 0 0.25 0"/>
<feBlend mode="normal" in2="BackgroundImageFix" result="effect1_dropShadow"/>
<feBlend mode="normal" in="SourceGraphic" in2="effect1_dropShadow" result="shape"/>
</filter>
<filter id="filter1_d" x="681.6" y="833.92" width="142.251" height="66.08" filterUnits="userSpaceOnUse" color-interpolation-filters="sRGB">
<feFlood flood-opacity="0" result="BackgroundImageFix"/>
<feColorMatrix in="SourceAlpha" type="matrix" values="0 0 0 0 0 0 0 0 0 0 0 0 0 0 0 0 0 0 127 0"/>
<feOffset dy="4"/>
<feGaussianBlur stdDeviation="2"/>
<feColorMatrix type="matrix" values="0 0 0 0 1 0 0 0 0 1 0 0 0 0 1 0 0 0 0.22 0"/>
<feBlend mode="normal" in2="BackgroundImageFix" result="effect1_dropShadow"/>
<feBlend mode="normal" in="SourceGraphic" in2="effect1_dropShadow" result="shape"/>
</filter>
<filter id="filter2_d" x="681.6" y="833.92" width="142.251" height="66.08" filterUnits="userSpaceOnUse" color-interpolation-filters="sRGB">
<feFlood flood-opacity="0" result="BackgroundImageFix"/>
<feColorMatrix in="SourceAlpha" type="matrix" values="0 0 0 0 0 0 0 0 0 0 0 0 0 0 0 0 0 0 127 0"/>
<feOffset dy="4"/>
<feGaussianBlur stdDeviation="2"/>
<feColorMatrix type="matrix" values="0 0 0 0 1 0 0 0 0 1 0 0 0 0 1 0 0 0 0.22 0"/>
<feBlend mode="normal" in2="BackgroundImageFix" result="effect1_dropShadow"/>
<feBlend mode="normal" in="SourceGraphic" in2="effect1_dropShadow" result="shape"/>
</filter>
<linearGradient id="paint0_linear" x1="689.329" y1="914.2" x2="689.329" y2="85.4379" gradientUnits="userSpaceOnUse">
<stop stop-color="#808080" stop-opacity="0.25"/>
<stop offset="0.54" stop-color="#808080" stop-opacity="0.12"/>
<stop offset="1" stop-color="#808080" stop-opacity="0.1"/>
</linearGradient>
<clipPath id="clip0">
<rect width="1324" height="1005" fill="white"/>
</clipPath>
</defs>
</svg>